<svg width="772" height="408" viewBox="0 0 772 408" fill="none" xmlns="http://www.w3.org/2000/svg">
<path fill-rule="evenodd" clip-rule="evenodd" d="M62.154 273.367V345.794L17.0405 371.48C15.4065 372.378 13.535 372.889 11.5464 372.889C5.37024 372.889 0.320746 367.963 0.0213645 361.781L0.000571512 361.765L3.05176e-05 316.947L0.00111251 316.947L0.00179463 315.625C0.00179463 310.974 2.68894 306.954 6.57478 305.072L62.154 273.367Z" fill="url(#paint0_linear_4814_6)"/>
<path fill-rule="evenodd" clip-rule="evenodd" d="M16.8514 35.7932C17.0646 35.9073 62.1538 61.8937 62.1538 61.8937C62.1538 61.8937 62.1535 117.475 62.1535 127.975C62.1535 129.028 61.5944 130.001 60.685 130.532C52.9834 135.024 17.1241 155.943 4.45095 163.335C3.53564 163.869 2.40463 163.873 1.4856 163.345C0.56671 162.818 3.05176e-05 161.839 3.05176e-05 160.779C3.05176e-05 137.811 3.05176e-05 45.8951 3.05176e-05 45.8951L0.0188477 45.8722C0.147416 39.5491 5.24579 34.4561 11.5072 34.4561C12.9565 34.4561 14.3437 34.729 15.6212 35.227L16.8514 35.7932Z" fill="url(#paint1_linear_4814_6)"/>
<path fill-rule="evenodd" clip-rule="evenodd" d="M0.00111251 315.693C0.00111251 315.84 0.000359788 266.64 3.05229e-05 246.385C-0.000110679 241.093 2.82529 236.204 7.41019 233.562C30.5551 220.226 101.048 179.606 119.46 168.997C120.375 168.469 121.503 168.47 122.418 168.999C123.333 169.528 123.897 170.504 123.897 171.561C123.897 186.167 123.897 227.548 123.897 236.494C123.897 237.557 123.327 238.539 122.404 239.065C108.784 246.835 6.5741 305.14 6.5741 305.14C2.68825 307.022 0.00111251 311.042 0.00111251 315.693Z" fill="url(#paint2_linear_4814_6)"/>
<path fill-rule="evenodd" clip-rule="evenodd" d="M17.1927 371.332L17.2029 371.338C17.2029 371.338 146.352 297.035 178.983 278.261C183.572 275.621 186.402 270.729 186.402 265.434C186.402 240.328 186.402 167.071 186.402 141.965C186.402 136.67 183.572 131.778 178.983 129.138C146.345 110.36 17.145 36.0278 17.145 36.0278L17.1361 36.0333C15.446 35.0497 13.4874 34.4871 11.4 34.4871C10.2166 34.4871 8.14944 35.0264 7.07441 35.3623C7.07441 35.3623 48.0098 11.8148 65.1227 1.97085C69.6921 -0.657671 75.3148 -0.656824 79.8835 1.97264C108.471 18.4266 211.748 77.8697 240.399 94.3603C244.987 97.0011 247.815 101.892 247.815 107.186C247.815 141.319 247.815 267.539 247.815 301.685C247.815 306.983 244.983 311.877 240.389 314.517C211.874 330.901 109.577 389.68 81.1822 405.996C76.6261 408.613 71.0235 408.619 66.4622 406.01C48.9976 396.02 6.521 371.724 6.521 371.724C8.02548 372.453 9.70962 372.861 11.4871 372.861C13.562 372.861 15.5095 372.305 17.1927 371.332Z" fill="url(#paint3_linear_4814_6)"/>
<path d="M444.963 274.974C449.66 276.207 454.534 276.824 459.584 276.824C465.691 276.824 470.74 275.914 474.733 274.093C478.785 272.272 481.809 269.864 483.805 266.869C485.86 263.815 486.888 260.497 486.888 256.914C486.888 253.684 486.242 251.012 484.95 248.898C483.717 246.725 482.073 244.992 480.018 243.7C477.963 242.349 475.673 241.292 473.148 240.529C470.682 239.706 468.186 239.031 465.661 238.502C463.195 237.974 460.905 237.475 458.791 237.005C456.736 236.476 455.063 235.83 453.771 235.067C452.538 234.244 451.921 233.158 451.921 231.807C451.921 230.75 452.244 229.81 452.89 228.988C453.536 228.166 454.593 227.52 456.061 227.05C457.529 226.521 459.466 226.257 461.874 226.257C464.575 226.257 467.364 226.668 470.241 227.49C473.119 228.254 476.025 229.429 478.961 231.014L484.334 218.064C481.28 216.302 477.787 214.981 473.853 214.1C469.977 213.16 466.014 212.69 461.962 212.69C455.914 212.69 450.864 213.601 446.813 215.421C442.761 217.242 439.708 219.65 437.652 222.645C435.656 225.64 434.658 228.988 434.658 232.688C434.658 235.977 435.304 238.708 436.596 240.881C437.887 242.995 439.561 244.728 441.616 246.079C443.671 247.371 445.932 248.428 448.398 249.25C450.923 250.072 453.418 250.748 455.885 251.276C458.41 251.805 460.7 252.333 462.755 252.862C464.81 253.39 466.483 254.066 467.775 254.888C469.067 255.71 469.713 256.826 469.713 258.236C469.713 259.234 469.361 260.115 468.656 260.879C468.01 261.583 466.953 262.171 465.485 262.64C464.017 263.052 462.079 263.257 459.672 263.257C456.09 263.257 452.479 262.699 448.838 261.583C445.257 260.409 442.086 258.94 439.326 257.179L433.601 270.04C436.537 272.037 440.324 273.682 444.963 274.974Z" fill="#111111"/>
<path d="M538.53 274.533C542.699 276.06 547.22 276.824 552.094 276.824C556.557 276.824 561.107 276.148 565.746 274.798C570.385 273.447 574.466 271.509 577.989 268.983V243.436H562.575V260.375C561.957 260.667 561.34 260.923 560.726 261.143C558.259 261.965 555.735 262.376 553.151 262.376C550.567 262.376 548.189 261.965 546.017 261.143C543.903 260.262 542.083 259.058 540.556 257.531C539.029 255.945 537.825 254.066 536.945 251.893C536.123 249.72 535.712 247.341 535.712 244.757C535.712 242.056 536.123 239.648 536.945 237.533C537.825 235.36 539.029 233.51 540.556 231.983C542.083 230.398 543.932 229.194 546.105 228.371C548.277 227.549 550.685 227.138 553.327 227.138C556.322 227.138 559.023 227.725 561.43 228.9C563.897 230.016 566.187 231.719 568.3 234.009L579.398 223.967C576.404 220.325 572.616 217.536 568.036 215.598C563.456 213.659 558.259 212.69 552.446 212.69C547.455 212.69 542.846 213.483 538.618 215.069C534.449 216.596 530.838 218.798 527.785 221.676C524.731 224.554 522.353 227.96 520.65 231.895C518.947 235.771 518.096 240.059 518.096 244.757C518.096 249.456 518.947 253.772 520.65 257.707C522.353 261.583 524.702 264.96 527.696 267.838C530.75 270.716 534.361 272.948 538.53 274.533Z" fill="#111111"/>
<path d="M587.283 213.924H601.639L628.856 246.787V213.924H645.943V275.591H631.586L604.37 242.728V275.591H587.283V213.924Z" fill="#111111"/>
<path d="M673.747 250.836V262.112H705.984V275.591H656.484V213.924H704.839V227.403H673.747V237.798H701.139V250.836H673.747Z" fill="#111111"/>
<path fill-rule="evenodd" clip-rule="evenodd" d="M713.898 275.591H731.338V259.205H740.858L752.036 275.591H770.709L757.403 256.199C761.133 254.404 764.042 251.941 766.129 248.81C768.36 245.403 769.476 241.38 769.476 236.741C769.476 232.042 768.36 227.99 766.129 224.584C763.897 221.118 760.727 218.476 756.616 216.655C752.565 214.834 747.72 213.924 742.083 213.924H713.898V275.591ZM731.338 245.726H741.026C744.667 245.726 747.368 244.934 749.13 243.348C750.95 241.762 751.86 239.56 751.86 236.741C751.86 233.863 750.95 231.631 749.13 230.045C747.368 228.46 744.667 227.667 741.026 227.667H731.338V245.726Z" fill="#111111"/>
<path d="M493.181 275.591V213.924H510.62V275.591H493.181Z" fill="#111111"/>
<path fill-rule="evenodd" clip-rule="evenodd" d="M309.494 275.591V213.924H338.648C345.46 213.924 351.449 215.187 356.616 217.712C361.783 220.238 365.806 223.791 368.683 228.372C371.619 232.953 373.087 238.415 373.087 244.757C373.087 251.042 371.619 256.503 368.683 261.143C365.806 265.724 361.783 269.277 356.616 271.803C351.449 274.328 345.46 275.591 338.648 275.591H309.494ZM326.934 261.672H337.944C341.467 261.672 344.52 261.026 347.104 259.734C349.746 258.383 351.801 256.445 353.269 253.919C354.737 251.335 355.471 248.281 355.471 244.757C355.471 241.175 354.737 238.121 353.269 235.595C351.801 233.07 349.746 231.161 347.104 229.869C344.52 228.518 341.467 227.843 337.944 227.843H326.934V261.672Z" fill="#111111"/>
<path d="M397.763 262.112V250.836H425.156V237.798H397.763V227.403H428.855V213.924H380.5V275.591H430V262.112H397.763Z" fill="#111111"/>
<path fill-rule="evenodd" clip-rule="evenodd" d="M334.138 131.139L306.145 192.759H314.948L321.783 177.266H354.856L361.691 192.759H370.494L342.501 131.139H334.138ZM351.827 170.4L338.32 139.783L324.812 170.4H351.827Z" fill="#111111"/>
<path d="M378.194 192.759V131.139H386.557V185.453H420.184V192.759H378.194Z" fill="#111111"/>
<path d="M435.003 138.445V192.759H443.366V138.445H464.581V131.139H413.788V138.445H435.003Z" fill="#111111"/>
<path d="M472.588 192.759V131.139H480.951V192.759H472.588Z" fill="#111111"/>
<path d="M504.245 186.509C508.881 191.145 515.219 193.463 523.259 193.463C531.358 193.463 537.696 191.145 542.274 186.509C546.91 181.873 549.228 175.095 549.228 166.174V131.139H540.953V165.91C540.953 172.776 539.427 177.823 536.376 181.051C533.324 184.279 528.981 185.893 523.347 185.893C517.713 185.893 513.371 184.279 510.319 181.051C507.267 177.823 505.742 172.776 505.742 165.91V131.139H497.379V166.174C497.379 175.095 499.667 181.873 504.245 186.509Z" fill="#111111"/>
<path d="M565.779 131.139V192.759H573.877V147.449L596.413 185.277H600.286L622.91 147.028V192.759H631.096L631.008 131.139H624.054L598.514 174.746L572.645 131.139H565.779Z" fill="#111111"/>
<defs>
<linearGradient id="paint0_linear_4814_6" x1="50.5087" y1="352.518" x2="18.9651" y2="297.884" gradientUnits="userSpaceOnUse">
<stop stop-color="#D9C185"/>
<stop offset="1" stop-color="#8E783E"/>
</linearGradient>
<linearGradient id="paint1_linear_4814_6" x1="-3.80672" y1="160.889" x2="47.7981" y2="50.2241" gradientUnits="userSpaceOnUse">
<stop offset="0.181679" stop-color="#D9C185"/>
<stop offset="1" stop-color="#907C44"/>
</linearGradient>
<linearGradient id="paint2_linear_4814_6" x1="8.85563" y1="321.443" x2="112.178" y2="162.344" gradientUnits="userSpaceOnUse">
<stop stop-color="#D9C185"/>
<stop offset="0.278147" stop-color="#C8B176"/>
<stop offset="1" stop-color="#9F8951"/>
</linearGradient>
<linearGradient id="paint3_linear_4814_6" x1="127.168" y1="-1.45015e-05" x2="127.168" y2="407.963" gradientUnits="userSpaceOnUse">
<stop stop-color="#D9C185"/>
<stop offset="0.225264" stop-color="#CEB67A"/>
<stop offset="0.622149" stop-color="#B0995E"/>
<stop offset="1" stop-color="#8E783E"/>
</linearGradient>
</defs>
</svg>
