<svg xmlns="http://www.w3.org/2000/svg" height="800" width="1200" viewBox="-36 -19.14375 312 114.8625"><path d="M131.114 45.33h-16.663L97.134 24.121V45.33H83.491V.024h13.643v20.313L113.536.024h14.833l-16.858 21.215zm40.087-9.16h-20.483v-9.559h19.017v-9.162h-19.017V9.086h19.932V.024h-33.575V45.33h34.127v-9.16zM194.107.024h-13.645V45.33h13.645zm45.807 34.451h-20.749V.024h-13.641V45.33h34.39zM0 .264v70.375l36.976-34.79zM3.974 10.27l26.64 25.646-26.64 25.246zM7.422 0l37.241 35.916L7.422 70.373h64.013V0zm59.903 66.266H18.022l32.736-30.351-33-31.675h49.566v62.026zM227.903 1.153h-2.464V.026h6.209v1.127h-2.481v6.479h-1.264zM232.51.026h1.873l1.892 6.077h.039l1.834-6.077h1.834v7.606h-1.166V1.249h-.037l-1.911 6.383h-1.147l-2.007-6.479h-.037v6.479h-1.166V.026z" fill="#0083AB"/><path d="M83.525 51.849h15.448v2.356h-6.447v16.163h-2.66V54.205h-6.341zm20.029 6.315c-1.871 0-3.427.592-4.667 1.78-1.239 1.188-1.858 2.672-1.858 4.454 0 1.766.614 3.237 1.84 4.414 1.226 1.18 2.753 1.767 4.579 1.767 1.889 0 3.455-.58 4.699-1.741 1.244-1.16 1.865-2.618 1.865-4.374 0-1.809-.613-3.311-1.839-4.506-1.226-1.197-2.766-1.794-4.619-1.794m2.833 3.309c.785.759 1.178 1.716 1.178 2.872 0 1.164-.378 2.121-1.133 2.866-.754.745-1.721 1.118-2.904 1.118-1.192 0-2.167-.369-2.926-1.105-.759-.738-1.139-1.688-1.139-2.853 0-1.173.37-2.14 1.112-2.899.741-.759 1.689-1.139 2.847-1.139 1.191.001 2.18.381 2.965 1.14zm12.774-3.309c-1.871 0-3.427.592-4.665 1.78-1.241 1.188-1.86 2.672-1.86 4.454 0 1.766.614 3.237 1.84 4.414 1.226 1.18 2.753 1.767 4.581 1.767 1.887 0 3.453-.58 4.699-1.741 1.242-1.16 1.865-2.618 1.863-4.374 0-1.809-.611-3.311-1.838-4.506-1.228-1.197-2.768-1.794-4.62-1.794m2.833 3.309c.787.759 1.18 1.716 1.18 2.872 0 1.164-.378 2.121-1.133 2.866-.756.745-1.723 1.118-2.906 1.118-1.19 0-2.165-.369-2.924-1.105-.761-.738-1.141-1.688-1.141-2.853 0-1.173.372-2.14 1.112-2.899.742-.759 1.691-1.139 2.847-1.139 1.19.001 2.18.381 2.965 1.14zm7.001 8.895h2.411V51.876h-2.411zm5.945-.875c.857.415 1.566.701 2.13.854.567.155 1.211.231 1.935.231 1.226 0 2.23-.32 3.012-.959.781-.638 1.172-1.457 1.172-2.454 0-1.395-1.016-2.665-3.047-3.811l-.861-.491c-.651-.361-1.108-.669-1.367-.925-.261-.257-.389-.526-.389-.808 0-.328.143-.592.43-.789.286-.199.662-.299 1.129-.299.909 0 2.078.433 3.508 1.297v-2.383c-1.253-.67-2.474-1.006-3.668-1.006-1.144 0-2.083.296-2.811.888-.728.59-1.092 1.354-1.092 2.29 0 .723.24 1.392.722 2.005.479.613 1.495 1.352 3.051 2.217.777.441 1.281.778 1.516 1.013.234.233.35.526.35.88 0 .344-.18.64-.541.886-.362.248-.794.37-1.299.37-.485 0-1.082-.147-1.793-.442-.71-.296-1.406-.683-2.085-1.159v2.595m19.751.2c.512.256 1.203.469 2.072.635.868.167 1.696.251 2.479.251 1.958 0 3.524-.58 4.694-1.741 1.17-1.16 1.753-2.719 1.753-4.677 0-1.828-.489-3.324-1.47-4.489-.979-1.165-2.24-1.747-3.783-1.747-1.186 0-2.296.379-3.338 1.138v-7.188h-2.408v17.818zm5.151-9.518c1.014 0 1.836.379 2.469 1.139.628.759.944 1.742.944 2.951 0 1.19-.337 2.165-1.012 2.925-.677.759-1.546 1.139-2.615 1.139-.863 0-1.706-.124-2.528-.37v-6.591c.926-.796 1.839-1.193 2.742-1.193zm13.223 4.894l-3.291-6.879h-2.743l4.702 9.562-4.133 8.823h2.688l8.629-18.385h-2.702zm11.957 5.299h2.72l2.31-5.481h7.889l2.467 5.481h2.708l-8.292-18.598h-1.86zm6.08-7.837l2.765-6.696 2.985 6.696zm17.417 7.837V62.32h.688c.863 0 1.481.1 1.85.297.366.198.777.522 1.231.971.455.45.956 1.054 1.501 1.814l.887 1.443.82 1.35.516.729c.078.106.132.182.156.226l.81 1.218h3.147l-.977-1.324c-.391-.529-.906-1.319-1.55-2.37-1.025-1.667-1.819-2.836-2.383-3.507-.565-.669-1.145-1.199-1.733-1.587 1.004-.389 1.776-.975 2.315-1.762.538-.785.808-1.715.808-2.792 0-1.58-.549-2.833-1.648-3.759-1.099-.926-2.584-1.39-4.455-1.39h-4.632v18.492h2.649zm3.578-15.951c.561.194.996.528 1.303.999.311.474.465 1 .465 1.582 0 .591-.14 1.119-.419 1.582-.274.463-.665.809-1.164 1.039-.498.229-1.417.345-2.759.345h-1.004v-5.838h.792c1.299 0 2.225.098 2.786.291zm19.317 5.054l-6.146-7.595h-2.504v18.492h2.647V55.98l5.751 7.147h.489l5.687-7.147v14.388H240V51.876h-2.476z"/></svg>