<svg height="2500" width="2500" xmlns="http://www.w3.org/2000/svg" viewBox="0 0 225 225"><path d="M0 0h225v225H0V0z" fill="#fbfbfb"/><path d="M19 50h50c3.757 9.016 7.167 17.357 9.402 26.77.747 2.787 1.669 5.498 2.598 8.23 1.316 3.87 2.444 7.692 3.371 11.676 1.24 4.582 2.864 9.056 4.41 13.543.838 2.599 1.563 5.09 2.192 7.734 1.019 4.22 2.46 8.229 3.965 12.297a156.496 156.496 0 0 1 5.359 18.012c.7 2.728 1.583 5.291 2.578 7.925 1.843 4.88 3.394 9.814 4.875 14.813l.675 2.25c.881 3.012 1.575 5.595 1.575 8.75h2l.227-1.625c1.069-6.374 3.114-12.191 5.452-18.187 2.186-5.66 3.854-11.348 5.45-17.204.697-2.39 1.458-4.544 2.496-6.797 1.114-2.581 1.717-4.544 2.25-7.25 1.064-5.198 2.883-10.055 4.713-15.028 1.32-3.62 2.553-7.266 3.764-10.925l1.312-3.957.67-2.023c1.06-3.193 2.131-6.384 3.201-9.574l1.264-3.778c.633-1.893 1.266-3.786 1.901-5.678 2.59-7.72 5.093-15.453 7.403-23.263C153 54 153 54 155 50h50v174h-34V90l-4 13c-2 5.5-2 5.5-3.008 8.215-1.424 3.998-2.628 8.055-3.855 12.117-1.798 5.8-3.74 11.552-5.672 17.309l-.727 2.166c-.505 1.499-1.01 2.998-1.519 4.496-1.137 3.373-2.229 6.731-3.196 10.158-1.53 5.29-3.424 10.445-5.28 15.629-2.04 5.752-3.874 11.547-5.65 17.386-2.01 6.48-4.185 12.904-6.343 19.337L127 224H92l-3-11a494.081 494.081 0 0 0-2.05-6.715l-1.108-3.545-1.154-3.678C82.08 190.722 79.49 182.377 77 174a2352.132 2352.132 0 0 0-7.14-23.463l-1.207-3.912a544456602.714 544456602.714 0 0 0-2.695-8.712c-.885-2.69-1.9-5.288-2.958-7.913-.508-1.93-.986-3.868-1.438-5.813-.846-3.493-1.726-6.85-3.062-10.187-1.66-4.157-2.65-8.423-3.656-12.777-.706-2.694-1.509-5.288-2.397-7.924l-.82-2.444L51 89l.09 1.78c.805 16.292 1.045 32.536 1.008 48.845l-.005 7.363c-.003 6.372-.013 12.744-.024 19.115-.01 6.537-.015 13.075-.02 19.612-.01 12.762-.028 25.523-.049 38.285H19V50z" fill="#020202"/><path d="M2 7h221v37H2V7z" fill="#0000f6"/><path d="M2 7h221v37H2V7zm7 7v23h207V14H9z" fill="#030304"/></svg>