<?xml version="1.0" encoding="UTF-8" standalone="no"?>
<svg
   xmlns:dc="http://purl.org/dc/elements/1.1/"
   xmlns:cc="http://creativecommons.org/ns#"
   xmlns:rdf="http://www.w3.org/1999/02/22-rdf-syntax-ns#"
   xmlns:svg="http://www.w3.org/2000/svg"
   xmlns="http://www.w3.org/2000/svg"
   xmlns:sodipodi="http://sodipodi.sourceforge.net/DTD/sodipodi-0.dtd"
   xmlns:inkscape="http://www.inkscape.org/namespaces/inkscape"
   viewBox="0 0 158.90933 240.28399"
   height="240.284"
   width="158.90933"
   xml:space="preserve"
   id="svg2"
   version="1.1"
   inkscape:version="0.91 r13725"
   sodipodi:docname="logo.svg"><sodipodi:namedview
     pagecolor="#ffffff"
     bordercolor="#666666"
     borderopacity="1"
     objecttolerance="10"
     gridtolerance="10"
     guidetolerance="10"
     inkscape:pageopacity="0"
     inkscape:pageshadow="2"
     inkscape:window-width="1280"
     inkscape:window-height="657"
     id="namedview3428"
     showgrid="false"
     inkscape:snap-page="false"
     fit-margin-top="0"
     fit-margin-left="0"
     fit-margin-right="0"
     fit-margin-bottom="0"
     inkscape:zoom="0.61472937"
     inkscape:cx="110.72636"
     inkscape:cy="189.8677"
     inkscape:window-x="-8"
     inkscape:window-y="-8"
     inkscape:window-maximized="1"
     inkscape:current-layer="svg2" /><metadata
     id="metadata8"><rdf:RDF><cc:Work
         rdf:about=""><dc:format>image/svg+xml</dc:format><dc:type
           rdf:resource="http://purl.org/dc/dcmitype/StillImage" /><dc:title></dc:title></cc:Work></rdf:RDF></metadata><defs
     id="defs6" /><g
     transform="matrix(1.3333333,0,0,-1.3333333,-335.11866,682.36665)"
     id="g10"><g
       transform="scale(0.1,0.1)"
       id="g12"><path
         id="path14"
         style="fill:#f14729;fill-opacity:1;fill-rule:nonzero;stroke:none"
         d="m 2945.21,3353.04 736.97,-23.03 -46.06,909.7 69.09,831.98 -339.7,-17.27 -158.33,63.33 -693.79,-37.43 34.54,-820.45 -34.54,-944.25 431.82,37.42"
         inkscape:connector-curvature="0" /><path
         id="path16"
         style="fill:#1e5cb3;fill-opacity:1;fill-rule:nonzero;stroke:none"
         d="m 3181.37,4009.63 -62.71,-17.1 34.2,82.65 34.2,230.85 -42.75,8.55 51.31,71.25 63.91,240.19 -112.37,-23.58 c 0,0 59.25,108.47 122.13,179.12 l -82.23,63.13 c 0,0 -264.88,-116.68 -193.63,-495.74 l -54.75,9.59 52.51,-397.36 -44.39,-11.41 c 0,0 45.48,-92.8 109.16,-136.8 5.79,-3.99 -79.8,310.66 11.4,624.16 l 8.55,-19.95 c 0,0 -72.67,-334.16 0,-604.21 0,0 3.35,-6.41 39.69,-2.13 0,0 65.77,123.97 65.77,198.79"
         inkscape:connector-curvature="0" /><path
         id="path18"
         style="fill:#ffffff;fill-opacity:1;fill-rule:nonzero;stroke:none"
         d="m 2714.31,3725.07 12.87,0 0,26.84 c 5.68,0 11.13,0 16.59,0.88 l 0,-27.72 19.2,0 0,-5.02 -19.2,0 0,-66.76 c 0,-3.93 0,-9.82 8.29,-9.82 5.67,0 8.73,3.92 12.22,8.07 l 3.49,-2.4 c -4.14,-8.29 -14.84,-13.31 -23.57,-13.31 -15.71,0 -17.45,8.51 -17.45,18.98 l 0,65.24 -12.44,0 0,5.02"
         inkscape:connector-curvature="0" /><path
         id="path20"
         style="fill:#ffffff;fill-opacity:1;fill-rule:nonzero;stroke:none"
         d="m 2905.62,3665.72 c -5.02,-15.49 -13.75,-29.02 -36.44,-29.89 -33.82,0 -44.08,28.15 -44.08,43.21 0,38.84 31.2,48.22 43.64,48.22 14.19,0 34.26,-6.55 34.26,-23.35 0,-5.89 -3.71,-11.57 -9.82,-11.57 -5.89,0 -10.25,3.93 -10.25,10.26 0,8.51 6.98,9.6 6.98,12 0,5.89 -13.75,8.29 -18.55,8.29 -20.95,0 -26.4,-15.27 -26.4,-43.85 0,-13.1 3.27,-23.13 4.58,-26.19 3.27,-7.2 10.04,-11.78 21.38,-12.44 12.66,-0.65 24.88,9.6 30.12,25.31 l 4.58,0"
         inkscape:connector-curvature="0" /><path
         id="path22"
         style="fill:#ffffff;fill-opacity:1;fill-rule:nonzero;stroke:none"
         d="m 2966,3638.67 0,5.02 16.8,0 0,140.3 -16.8,0 0,5.02 9.38,0 c 8.08,0 16.58,0.44 24.44,1.96 l 0,-147.28 16.81,0 0,-5.02 -50.63,0"
         inkscape:connector-curvature="0" /><path
         id="path24"
         style="fill:#ffffff;fill-opacity:1;fill-rule:nonzero;stroke:none"
         d="m 3174.53,3725.07 12.87,0 0,26.84 c 5.67,0 11.13,0 16.58,0.88 l 0,-27.72 19.21,0 0,-5.02 -19.21,0 0,-66.76 c 0,-3.93 0,-9.82 8.3,-9.82 5.67,0 8.72,3.92 12.22,8.07 l 3.48,-2.4 c -4.14,-8.29 -14.83,-13.31 -23.56,-13.31 -15.71,0 -17.46,8.51 -17.46,18.98 l 0,65.24 -12.43,0 0,5.02"
         inkscape:connector-curvature="0" /><path
         id="path26"
         style="fill:#ffffff;fill-opacity:1;fill-rule:nonzero;stroke:none"
         d="m 3337.47,3720.05 0,5.02 35.78,0 0,-5.02 -13.31,0 -30.11,-26.18 41.46,-50.18 9.16,0 0,-5.02 -41.45,0 0,5.02 10.91,0 -36.45,44.29 36.88,31.42 0,0.65 z m -52.59,-81.38 0,5.02 11.35,0 0,140.3 -11.35,0 0,5.02 3.93,0 c 8.07,0 16.58,0.44 24.44,1.96 l 0,-147.28 13.09,0 0,-5.02 -41.46,0"
         inkscape:connector-curvature="0" /><path
         id="path28"
         style="fill:#ffffff;fill-opacity:1;fill-rule:nonzero;stroke:none"
         d="m 3095.34,4465.36 c 0,0 -38.46,-171.48 -27.39,-449.52 3.32,-83.4 12.44,-160.06 23.58,-226.54 l 0.06,0 c 7.24,-58.38 12.09,-79.51 30.98,-149.85 l -1.11,-45.36 c 0,0 -151.25,482.93 -26.12,871.27"
         inkscape:connector-curvature="0" /><path
         id="path30"
         style="fill:#ffffff;fill-opacity:1;fill-rule:nonzero;stroke:none"
         d="m 3188.19,4614.06 c 0,0 34.01,16.94 82.77,23.1 0,0 53.31,-97.7 -77.87,-264.5 0,0 78.26,174.69 59.8,229.42 0,0 -20.64,12.82 -64.7,11.98"
         inkscape:connector-curvature="0" /><path
         id="path32"
         style="fill:#ffffff;fill-opacity:1;fill-rule:nonzero;stroke:none"
         d="m 3172.07,4320.8 c 0,0 30.54,-7.08 45.21,4.8 0,0 -28.9,-112.76 -21.32,-174.79 7.57,-62.02 -47.08,-101.73 -47.08,-101.73 0,0 46.55,58.9 31.92,106.88 -10.14,33.25 1.21,118.36 14.01,145.39 0,0 -11.96,1.67 -22.74,19.45"
         inkscape:connector-curvature="0" /><path
         id="path34"
         style="fill:#ffffff;fill-opacity:1;fill-rule:nonzero;stroke:none"
         d="m 3141.86,4023.7 c 0,0 50.48,6.04 55.78,31.55 0,0 6.18,-152.52 -63.95,-215.37 0,0 53.51,83.47 45.12,169.82 l -36.95,14"
         inkscape:connector-curvature="0" /><path
         id="path36"
         style="fill:#ffffff;fill-opacity:1;fill-rule:nonzero;stroke:none"
         d="m 2999.86,3960.22 c 0,0 -16.27,-18.24 -65.12,21.98 0,0 15.56,-102.5 112.24,-149.43 0,0 -66.53,50.13 -84.46,104.28 0,0 23.51,6.91 37.34,23.17"
         inkscape:connector-curvature="0" /><path
         id="path38"
         style="fill:#ffffff;fill-opacity:1;fill-rule:nonzero;stroke:none"
         d="m 2984.28,3999.1 c 0,0 -66.05,167.65 -51.9,394.19 0,0 15.43,-41.03 65,-55.41 0,0 -23.35,-4.78 -37.01,-2.71 0,0 -34.55,-95.63 23.91,-336.07"
         inkscape:connector-curvature="0" /><path
         id="path40"
         style="fill:#ffffff;fill-opacity:1;fill-rule:nonzero;stroke:none"
         d="m 3261.73,4778.12 c 0,0 -24.75,181.91 -179.61,-2.05 -123.31,-146.49 -108.61,-270.85 -101.05,-340.24 1.94,-17.75 -22.94,185.31 112.16,318.94 135.1,133.63 165.62,31.11 168.5,23.35"
         inkscape:connector-curvature="0" /><path
         id="path42"
         style="fill:#fff200;fill-opacity:1;fill-rule:nonzero;stroke:none"
         d="m 3033.63,4933.27 c 0,0 -121.52,34.71 -160.19,-368.05 0,0 -29.84,124.32 47.34,300.13 77.18,175.82 112.85,67.92 112.85,67.92"
         inkscape:connector-curvature="0" /><path
         id="path44"
         style="fill:#fff200;fill-opacity:1;fill-rule:nonzero;stroke:none"
         d="m 2882.88,4962.72 c 0,0 -61.98,-93.22 -47.92,-192.51 0,0 -47.01,186.91 47.92,192.51"
         inkscape:connector-curvature="0" /><path
         id="path46"
         style="fill:#fff200;fill-opacity:1;fill-rule:nonzero;stroke:none"
         d="m 3338.99,4701.33 c 0,0 73.29,27.03 -31.65,-245.76 0,0 54.31,79.72 88.5,204.96 21.95,80.37 -56.85,40.8 -56.85,40.8"
         inkscape:connector-curvature="0" /><path
         id="path48"
         style="fill:#fff200;fill-opacity:1;fill-rule:nonzero;stroke:none"
         d="m 3457.52,4722.58 c 0,0 51.82,-46.9 15.09,-108.94 0,0 92.17,96.84 -15.09,108.94"
         inkscape:connector-curvature="0" /><path
         id="path50"
         style="fill:#fff200;fill-opacity:1;fill-rule:nonzero;stroke:none"
         d="m 2731.77,3543.32 c 0,-5.81 -0.47,-10.41 -6.61,-10.41 -6.31,0 -6.61,4.77 -6.61,10.41 l 0,21.53 2.93,0 0,-21.37 c 0,-5.22 0.29,-7.73 3.68,-7.73 3.34,0 3.68,2.51 3.68,7.73 l 0,21.37 2.93,0 0,-21.53"
         inkscape:connector-curvature="0" /><path
         id="path52"
         style="fill:#fff200;fill-opacity:1;fill-rule:nonzero;stroke:none"
         d="m 2771.61,3564.85 -2.55,0 0,-20.99 c 0,-1.38 0.21,-2.8 0.3,-4.18 l -0.13,0 c -0.29,1.09 -0.59,2.18 -0.96,3.26 l -7.23,21.91 -2.56,0 0,-31.52 2.56,0 0,19.14 c 0,2.05 -0.21,4.06 -0.34,6.11 l 0.17,0 c 0.37,-1.34 0.63,-2.76 1.08,-4.06 l 7.11,-21.19 2.55,0 0,31.52"
         inkscape:connector-curvature="0" /><path
         id="path54"
         style="fill:#fff200;fill-opacity:1;fill-rule:nonzero;stroke:none"
         d="m 2798.49,3533.33 2.9297,0 0,31.5234 -2.9297,0 z"
         inkscape:connector-curvature="0" /><path
         id="path56"
         style="fill:#fff200;fill-opacity:1;fill-rule:nonzero;stroke:none"
         d="m 2835.14,3533.33 -2.59,0 -6.35,31.52 3.01,0 4.13,-22.95 c 0.17,-0.8 0.34,-2.85 0.5,-4.27 l 0.17,0 c 0.13,1.42 0.29,3.51 0.42,4.27 l 4.1,22.95 2.97,0 -6.36,-31.52"
         inkscape:connector-curvature="0" /><path
         id="path58"
         style="fill:#fff200;fill-opacity:1;fill-rule:nonzero;stroke:none"
         d="m 2876.24,3562.18 -6.98,0 0,-11.13 6.77,0 0,-2.67 -6.77,0 0,-12.38 6.98,0 0,-2.67 -9.91,0 0,31.52 9.91,0 0,-2.67"
         inkscape:connector-curvature="0" /><path
         id="path60"
         style="fill:#fff200;fill-opacity:1;fill-rule:nonzero;stroke:none"
         d="m 2902.28,3533.33 0,31.52 3.13,0 c 4.39,0 8.62,-0.33 8.62,-8.03 0,-4.01 -0.88,-7.94 -5.94,-8.11 l 6.98,-15.38 -3.09,0 -6.69,15.42 -0.08,0 0,-15.42 z m 2.93,17.81 1.04,0 c 4.1,0 4.77,1.42 4.77,5.56 0,4.97 -1.51,5.48 -5.23,5.48 l -0.58,0 0,-11.04"
         inkscape:connector-curvature="0" /><path
         id="path62"
         style="fill:#fff200;fill-opacity:1;fill-rule:nonzero;stroke:none"
         d="m 2950.98,3559.88 c -1.25,1.42 -2.63,2.55 -4.64,2.55 -2.93,0 -4.55,-2.43 -4.55,-5.11 0,-3.68 2.67,-5.39 5.39,-7.23 2.67,-1.88 5.35,-3.89 5.35,-8.23 0,-4.6 -2.97,-8.95 -7.9,-8.95 -1.76,0 -3.56,0.5 -4.98,1.59 l 0,3.8 c 1.34,-1.42 3.1,-2.55 5.1,-2.55 3.09,0 4.81,2.72 4.77,5.56 0.04,3.68 -2.68,5.31 -5.35,7.19 -2.68,1.84 -5.4,3.89 -5.4,8.41 0,4.22 2.59,8.36 7.24,8.36 1.88,0 3.47,-0.63 4.97,-1.67 l 0,-3.72"
         inkscape:connector-curvature="0" /><path
         id="path64"
         style="fill:#fff200;fill-opacity:1;fill-rule:nonzero;stroke:none"
         d="m 2990.86,3533.33 -3.13,0 -1.17,6.47 -6.69,0 -1.13,-6.47 -3.13,0 6.18,31.52 2.76,0 z m -4.76,9.03 -2.09,12.08 c -0.38,2.13 -0.55,4.31 -0.8,6.44 l -0.16,0 c -0.3,-2.13 -0.5,-4.31 -0.84,-6.44 l -1.84,-12.08 5.73,0"
         inkscape:connector-curvature="0" /><path
         id="path66"
         style="fill:#fff200;fill-opacity:1;fill-rule:nonzero;stroke:none"
         d="m 3018.13,3536 6.85,0 0,-2.67 -9.78,0 0,31.52 2.93,0 0,-28.85"
         inkscape:connector-curvature="0" /><path
         id="path68"
         style="fill:#fff200;fill-opacity:1;fill-rule:nonzero;stroke:none"
         d="m 3090.75,3559.88 c -1.25,1.42 -2.63,2.55 -4.64,2.55 -2.92,0 -4.56,-2.43 -4.56,-5.11 0,-3.68 2.68,-5.39 5.4,-7.23 2.68,-1.88 5.35,-3.89 5.35,-8.23 0,-4.6 -2.97,-8.95 -7.9,-8.95 -1.76,0 -3.55,0.5 -4.97,1.59 l 0,3.8 c 1.33,-1.42 3.09,-2.55 5.09,-2.55 3.1,0 4.81,2.72 4.77,5.56 0.04,3.68 -2.68,5.31 -5.35,7.19 -2.67,1.84 -5.39,3.89 -5.39,8.41 0,4.22 2.59,8.36 7.23,8.36 1.88,0 3.47,-0.63 4.97,-1.67 l 0,-3.72"
         inkscape:connector-curvature="0" /><path
         id="path70"
         style="fill:#fff200;fill-opacity:1;fill-rule:nonzero;stroke:none"
         d="m 3129.47,3537.17 c -1.13,-0.79 -2.47,-1.42 -3.89,-1.42 -5.6,0 -5.6,9.74 -5.6,13.42 0,5.85 0.71,13.26 5.81,13.26 1.46,0 2.51,-0.59 3.68,-1.38 l 0,3.22 c -0.96,0.71 -2.55,1 -3.72,1 -8.62,0 -8.78,-12.21 -8.78,-17.31 0,-5.39 1.08,-15.05 8.48,-15.05 1.39,0 2.93,0.54 4.02,1.29 l 0,2.97"
         inkscape:connector-curvature="0" /><path
         id="path72"
         style="fill:#fff200;fill-opacity:1;fill-rule:nonzero;stroke:none"
         d="m 3155.05,3533.33 0,31.52 3.14,0 c 4.39,0 8.61,-0.33 8.61,-8.03 0,-4.01 -0.88,-7.94 -5.94,-8.11 l 6.99,-15.38 -3.1,0 -6.69,15.42 -0.08,0 0,-15.42 z m 2.93,17.81 1.04,0 c 4.1,0 4.77,1.42 4.77,5.56 0,4.97 -1.5,5.48 -5.22,5.48 l -0.59,0 0,-11.04"
         inkscape:connector-curvature="0" /><path
         id="path74"
         style="fill:#fff200;fill-opacity:1;fill-rule:nonzero;stroke:none"
         d="m 3192.8,3533.33 2.9258,0 0,31.5234 -2.9258,0 z"
         inkscape:connector-curvature="0" /><path
         id="path76"
         style="fill:#fff200;fill-opacity:1;fill-rule:nonzero;stroke:none"
         d="m 3222.55,3533.33 0,31.52 3.26,0 c 4.52,0 8.53,-0.42 8.53,-8.19 0,-6.11 -2.13,-8.24 -8.11,-8.24 l -0.75,0 0,-15.09 z m 2.93,17.76 1.13,0 c 4.09,0 4.6,1.51 4.72,5.57 0,4.34 -1.17,5.52 -5.27,5.52 l -0.58,0 0,-11.09"
         inkscape:connector-curvature="0" /><path
         id="path78"
         style="fill:#fff200;fill-opacity:1;fill-rule:nonzero;stroke:none"
         d="m 3269.54,3564.85 -12.38,0 0,-2.67 4.73,0 0,-28.85 2.93,0 0,28.85 4.72,0 0,2.67"
         inkscape:connector-curvature="0" /><path
         id="path80"
         style="fill:#fff200;fill-opacity:1;fill-rule:nonzero;stroke:none"
         d="m 3294.15,3533.33 2.9258,0 0,31.5234 -2.9258,0 z"
         inkscape:connector-curvature="0" /><path
         id="path82"
         style="fill:#fff200;fill-opacity:1;fill-rule:nonzero;stroke:none"
         d="m 3337.03,3533.33 -2.55,0 -7.11,21.19 c -0.46,1.3 -0.71,2.72 -1.09,4.06 l -0.16,0 c 0.12,-2.05 0.33,-4.06 0.33,-6.11 l 0,-19.14 -2.55,0 0,31.52 2.55,0 7.23,-21.91 c 0.38,-1.08 0.67,-2.17 0.96,-3.26 l 0.13,0 c -0.08,1.38 -0.29,2.8 -0.29,4.18 l 0,20.99 2.55,0 0,-31.52"
         inkscape:connector-curvature="0" /><path
         id="path84"
         style="fill:#fff200;fill-opacity:1;fill-rule:nonzero;stroke:none"
         d="m 3369.85,3549.96 7.19,0 0,-5.81 c 0,-4.97 -0.25,-11.24 -6.77,-11.24 -6.65,0 -7.28,6.98 -7.28,16.93 0,7.44 0.88,15.43 7.57,15.43 3.76,0 5.64,-2.51 6.44,-5.94 l -2.89,-1.13 c -0.33,1.89 -1.13,4.23 -3.43,4.23 -4.34,-0.05 -4.68,-6.78 -4.68,-12.34 0,-11.66 1.46,-14.34 4.52,-14.34 3.3,0 3.59,2.43 3.59,9.16 l 0,2.38 -4.26,0 0,2.67"
         inkscape:connector-curvature="0" /></g></g></svg>