<svg width="889" height="890" viewBox="0 0 889 890" fill="none" xmlns="http://www.w3.org/2000/svg">
<path d="M444.313 889.346C199.32 889.346 0 690.018 0 445.003C0 199.988 199.32 0.650391 444.313 0.650391C689.306 0.650391 888.626 199.988 888.626 445.003C888.626 690.018 689.306 889.346 444.313 889.346ZM444.313 12.7855C206.013 12.7855 12.134 206.672 12.134 445.003C12.134 683.336 206.013 877.211 444.313 877.211C682.613 877.211 876.492 683.325 876.492 445.003C876.492 206.682 682.624 12.7855 444.313 12.7855Z" fill="#9E1E2F"/>
<path fill-rule="evenodd" clip-rule="evenodd" d="M746.209 445.004C746.209 611.756 611.048 746.929 444.311 746.929C277.574 746.929 142.414 611.756 142.414 445.004C142.414 278.252 277.585 143.08 444.311 143.08C611.037 143.08 746.209 278.252 746.209 445.004ZM402.192 694.156V650.76H395.467C394.427 653.518 392.615 655.918 390.249 657.676C388.148 659.409 385.765 660.768 383.206 661.697V669.217C387.193 667.935 390.847 665.787 393.908 662.927V694.156H402.192ZM414.718 684.164C415.312 687.738 416.649 690.432 418.728 692.226C421.037 694.101 423.955 695.063 426.927 694.931C431.359 695.042 435.59 693.081 438.371 689.626C441.299 686.126 442.762 680.422 442.762 672.517C442.762 664.738 441.349 659.162 438.52 655.788C433.505 649.788 424.575 648.989 418.574 654.004C418.298 654.235 418.031 654.476 417.773 654.727C415.1 657.595 413.694 661.419 413.87 665.335C413.71 669.104 415.04 672.785 417.572 675.582C419.8 678.113 423.014 679.555 426.386 679.538C429.408 679.584 432.286 678.249 434.203 675.911C433.864 680.875 433.142 684.132 431.901 685.702C430.929 687.163 429.297 688.049 427.542 688.067C426.348 688.14 425.171 687.745 424.264 686.964C423.349 685.965 422.809 684.679 422.737 683.326L414.718 684.217V684.164ZM433.471 666.056C433.612 663.831 432.958 661.628 431.626 659.841C430.63 658.486 429.063 657.672 427.383 657.634C425.901 657.607 424.493 658.274 423.575 659.438C422.557 660.647 422.048 662.627 422.048 665.378C422.048 668.128 422.599 670.179 423.702 671.53C425.554 673.8 428.894 674.139 431.164 672.287C431.417 672.081 431.649 671.853 431.859 671.605C433.05 670.009 433.63 668.042 433.492 666.056H433.471ZM464.368 694.156H472.387V685.458H477.754V678.181H472.419V650.76H465.461L446.708 678.213V685.458H464.4V694.156H464.368ZM464.368 678.181V663.405L454.43 678.181H464.368ZM502.902 694.156V650.76H496.178C495.137 653.518 493.326 655.918 490.959 657.676C488.855 659.405 486.474 660.764 483.916 661.697V669.217C487.902 667.932 491.556 665.785 494.618 662.927V694.156H502.902ZM332.135 664.041C335.766 663.975 339.272 662.707 342.105 660.435C348.564 655.426 354.533 649.819 359.935 643.685C398.172 600.83 417.975 551.187 418.781 496.133L418.325 490.012C417.975 485.441 417.635 480.879 417.338 476.297C415.938 454.912 405.671 441.292 386.027 434.736C368.749 428.955 351.736 423.768 335.455 419.323C310.413 412.492 293.834 400.367 283.291 381.136C281.87 378.569 279.271 375.832 275.326 372.777C273.533 371.287 271.292 370.443 268.962 370.38C266.985 370.426 265.049 370.961 263.33 371.939C257.326 375.121 253.126 381.794 252.108 389.749C251.09 397.705 253.412 404.887 258.27 409.373C261.682 412.711 265.385 415.739 269.333 418.422C281.626 426.293 294.1 433.834 305.83 440.878C309.012 442.798 313.255 446.118 313.255 452.801C313.255 470.834 311.675 485.536 308.302 499.103C299.997 532.422 281.573 561.413 253.54 585.28C247.939 590.053 247.908 593.936 248.501 596.789C249.838 603.153 253.02 607.11 258.27 608.786C260.529 609.534 262.89 609.927 265.271 609.953C270.322 609.888 275.145 607.847 278.709 604.267C290.458 593.051 300.712 580.366 309.214 566.525C326.789 538.574 337.46 506.571 340.917 471.386C341.692 463.187 348.593 456.933 356.827 456.969C357.612 456.967 358.395 457.025 359.171 457.139C375.644 459.527 386.367 472.054 385.243 487.626C383.832 507.144 381.711 523.023 378.56 537.588C371.722 569.136 357.051 598.455 335.9 622.841C334.437 624.559 332.952 626.257 331.477 627.954C327.182 632.865 322.748 637.957 318.866 643.186C315.843 647.249 315.599 651.386 318.155 655.449C321.56 660.891 326.641 664.009 332.167 664.009L332.135 664.041ZM444.767 455.983C450.007 455.983 453.719 454.922 455.787 452.801C457.856 450.68 458.757 447.147 458.619 442.193C458.505 438.019 458.718 433.84 459.256 429.698C461.08 415.441 468.187 408.09 482.262 405.862C486.642 405.173 491.033 404.515 495.425 403.858C505.321 402.372 515.577 400.845 525.473 398.925C544.183 395.297 557.781 387.256 567.02 374.326C575.388 362.658 578.337 348.868 580.639 335.809L581.561 330.559C584.499 313.873 587.533 296.614 590.259 279.642C590.545 277.796 590.853 275.951 591.16 274.105C592.613 265.332 594.13 256.263 594.204 247.585C594.204 243.438 593.07 240.055 590.821 237.774C588.351 235.466 585.054 234.253 581.678 234.411C579.841 234.424 578.012 234.669 576.237 235.143C568.314 237.149 565.376 243.014 563.191 251.808C561.43 258.937 560.008 266.043 558.513 273.564C557.855 276.831 557.198 280.109 556.508 283.419L555.681 287.396H459.542V282.401C459.542 279.79 459.542 277.202 459.542 274.635C459.542 269.077 459.468 263.338 459.616 257.663C459.797 250.938 460.041 244.191 460.295 237.456C460.635 228.546 460.985 219.338 461.133 210.289C461.25 203.745 458.025 199.682 450.686 197.041C448.387 196.2 445.963 195.758 443.516 195.736C433.97 195.736 427.287 202.811 427.234 212.941C427.234 219.306 427.584 225.894 427.956 232.237C428.157 235.663 428.359 239.1 428.497 242.537C428.878 251.617 429.218 260.687 429.557 269.84L430.225 287.449H332.644L331.891 283.345C331.668 282.072 331.467 280.819 331.276 279.578C330.873 277.075 330.502 274.71 329.918 272.504C329.25 269.99 328.603 267.475 327.956 264.961C325.888 256.867 323.713 248.509 320.892 240.691C319.587 237.127 313.817 234.453 307.475 234.453C306.291 234.451 305.11 234.547 303.943 234.74C298.788 235.588 295.691 238.983 294.736 244.934C294.005 248.713 293.883 252.584 294.375 256.401C295.436 262.882 296.804 269.49 298.098 275.876C299.286 281.701 300.506 287.725 301.545 293.719C303.03 302.257 304.377 310.934 305.682 319.325C306.912 327.218 308.175 335.374 309.543 343.351C315.026 375.28 332.962 393.537 364.39 399.179C376.63 401.364 389.846 403.423 407.124 405.916C421.836 408.037 426.704 417.425 428.2 424.934C429.282 430.319 429.879 435.789 429.981 441.281C430.162 452.631 432.898 455.675 443.24 456.068H444.831L444.767 455.983ZM334.108 321.245C334.649 324.841 335.169 328.268 335.699 331.694C339.295 354.532 353.232 369.202 376.004 374.124C384.383 375.927 392.975 376.521 401.301 377.094C403.284 377.232 405.257 377.37 407.23 377.529C409.203 377.688 411.42 377.752 414.018 377.752C415.811 377.752 417.603 377.752 419.407 377.688C421.21 377.625 422.886 377.614 424.646 377.614H429.642V309.927H332.4L334.108 321.245ZM459.266 377.529L464.156 377.614C468.059 377.688 471.941 377.752 475.823 377.752C486.823 377.752 499.826 377.328 512.947 374.146C531.912 369.552 543.653 360.186 548.829 345.505C551.01 338.933 552.746 332.22 554.026 325.414C554.684 322.38 555.342 319.294 556.074 316.186L557.548 310.033H459.266V377.497V377.529ZM555.787 664.37C559.712 664.37 564.272 662.089 568.377 658.121C572.8 653.879 573.468 649.774 570.615 644.586C568.946 641.789 567.01 639.161 564.835 636.737L563.212 634.838C560.804 631.889 558.311 629.004 555.787 626.119C551.067 620.635 546.177 614.959 541.839 608.913C518.664 576.645 505.936 537.853 503.008 490.479C501.948 473.571 510.041 462.56 527.043 457.786C528.671 457.318 530.355 457.08 532.049 457.075C540.62 457.075 547.217 463.44 548.108 472.5C548.722 479.971 549.72 487.406 551.099 494.776C558.964 534.721 578.103 571.579 606.254 600.989C610.899 605.89 615.163 608.553 620.042 609.624C621.317 609.902 622.619 610.045 623.924 610.048C629.879 610.206 635.436 607.064 638.371 601.88C641.478 596.046 641.722 591.559 634.128 584.495C633.746 584.134 633.354 583.805 632.951 583.434C631.96 582.628 631.028 581.752 630.161 580.813C627.382 577.631 624.529 574.587 621.676 571.522C614.993 564.329 608.089 556.914 602.35 548.652C585.168 523.946 576.247 494.553 575.081 458.827C574.762 448.983 578.167 442.968 586.493 438.672C605.15 429.125 619.088 419.79 630.331 409.373C634.708 405.466 637.122 399.814 636.917 393.95C636.957 386.813 634.174 379.95 629.175 374.856C626.417 371.992 623.267 370.465 620.063 370.465C617.176 370.546 614.409 371.638 612.246 373.552C609.283 375.879 606.767 378.726 604.822 381.953C594.798 399.858 579.196 411.654 557.092 418.072C538.954 423.375 519.661 429.008 500.569 435.648C484.532 441.207 475.113 452.048 472.557 467.885C467.561 498.859 470.435 530.852 480.936 562.961C490.793 592.746 506.887 620.084 528.146 643.155C534.857 650.434 542.323 656.976 550.42 662.673C551.964 663.784 553.821 664.378 555.723 664.37H555.787Z" fill="#9E1E2F"/>
<path d="M67.4239 588.789L62.7675 572.253L97.9498 522.121L62.81 532.028C59.0623 533.089 56.8455 534.167 56.1596 535.263C55.2121 536.728 55.0777 538.658 55.7565 541.055L56.3505 543.177L54.6959 543.643L48.7031 522.428L50.3683 521.961L50.9729 524.083C51.7048 526.661 52.9988 528.263 54.8656 528.91C56.0111 529.292 58.2809 529.005 61.6963 528.051L113.053 513.561L113.509 515.184L75.7713 569.219L113.287 558.611C117.034 557.55 119.258 556.489 119.958 555.428C120.892 553.943 121.026 552.016 120.361 549.648L119.757 547.526L121.411 547.06L127.394 568.274L125.739 568.751L125.145 566.63C124.403 564.021 123.109 562.387 121.242 561.751C120.096 561.369 117.816 561.656 114.4 562.61L72.0377 574.522C70.8721 576.137 69.8834 577.872 69.0891 579.698C68.6255 581.169 68.3859 582.699 68.3784 584.239C68.4265 585.62 68.6656 586.986 69.0891 588.301L67.4239 588.789Z" fill="#9E1E2F"/>
<path d="M42.3519 477.208C41.6943 469.032 44.2187 461.682 49.9251 455.155C55.6314 448.627 63.1481 444.992 72.4748 444.25C82.0632 443.465 90.2693 445.834 97.0929 451.357C110.211 461.883 112.312 481.051 101.787 494.17C101.51 494.516 101.225 494.855 100.933 495.188C95.2402 501.602 87.4939 505.212 77.6933 506.019C67.6665 506.846 59.213 504.105 52.3328 497.797C46.4434 492.502 42.8609 485.112 42.3519 477.208ZM45.8203 477.823C46.0836 483.107 48.8388 487.952 53.2449 490.881C58.8169 494.714 66.6234 496.214 76.6645 495.379C86.96 494.544 94.7029 491.69 99.893 486.819C103.763 483.283 105.707 478.109 105.123 472.902C104.758 467.185 101.745 461.967 96.9762 458.793C92.0264 455.314 84.5805 453.98 74.6386 454.794C63.8339 455.685 55.9496 458.467 50.9857 463.142C47.0542 466.918 45.3324 471.812 45.8203 477.823Z" fill="#9E1E2F"/>
<path d="M111.161 376.51L109.379 393.322L77.6654 411.483C77.5593 413.063 77.4532 414.347 77.3472 415.344C77.3472 415.747 77.2517 416.171 77.1881 416.638C77.1244 417.105 77.0502 417.582 76.9653 418.07L95.2512 420.032C99.2075 420.447 101.721 420.277 102.771 419.523C104.358 418.306 105.316 416.442 105.38 414.442L105.635 411.982L107.353 412.172L104.479 439.137L102.76 438.956L103.004 436.591C103.301 433.929 102.633 431.924 101.021 430.597C100.13 429.844 97.8923 429.282 94.2966 428.89L53.6413 424.541C49.685 424.127 47.1712 424.297 46.1212 425.05C44.5225 426.315 43.5608 428.22 43.4907 430.258L43.2468 432.624L41.5391 432.38L43.9892 409.457C44.6964 402.774 45.711 397.898 47.0333 394.829C48.3366 391.771 50.5088 389.164 53.2807 387.33C56.1235 385.395 59.5756 384.569 62.9858 385.006C66.7174 385.366 70.1719 387.134 72.6484 389.949C75.2294 392.778 76.8239 396.897 77.432 402.307L96.874 391.244C101.343 388.719 104.369 386.459 105.953 384.465C107.723 382.078 108.921 379.316 109.453 376.393L111.161 376.563V376.51ZM74.0379 417.762C74.1015 417.176 74.1652 416.667 74.2288 416.235C74.2925 415.8 74.3349 415.45 74.3667 415.174C75.0031 409.181 74.197 404.566 71.9166 401.183C69.8023 397.955 66.3214 395.878 62.4766 395.55C58.9249 395.023 55.313 395.986 52.4958 398.213C49.6863 400.545 47.9633 403.934 47.7334 407.579C47.539 410.052 47.571 412.537 47.8288 415.004L74.0379 417.762Z" fill="#9E1E2F"/>
<path d="M63.0664 315.506L77.5869 318.688L77.1202 320.396C75.211 320.053 73.2591 320.021 71.3396 320.3C69.4921 320.684 67.8031 321.615 66.4924 322.974C65.0862 324.645 64.1071 326.632 63.6392 328.765L61.3163 337.368L107.985 349.959C111.754 350.978 114.208 351.204 115.346 350.638C116.916 349.832 118.019 348.252 118.666 345.876L119.228 343.754L120.904 344.199L113.915 370.125L112.249 369.669L112.833 367.547C113.54 364.972 113.254 362.929 111.974 361.416C111.189 360.503 109.078 359.581 105.61 358.647L58.9404 346.067L56.957 353.417C56.2951 355.439 55.9377 357.549 55.8963 359.676C56.1326 361.48 56.9304 363.166 58.1767 364.492C59.8252 366.258 61.9108 367.557 64.2225 368.258L63.7558 369.966L49.6172 365.382L63.0664 315.506Z" fill="#9E1E2F"/>
<path d="M101.365 299.095L113.955 272.524L97.5779 264.78C95.6882 263.748 93.6535 263.009 91.5427 262.584C90.5774 262.577 89.6383 262.898 88.8804 263.496C87.6683 264.358 86.6969 265.516 86.0591 266.859L85.0939 268.885L83.5347 268.153L95.1384 243.66L96.7081 244.392L95.7429 246.418C95.1024 247.759 94.8105 249.241 94.8944 250.725C94.8903 251.779 95.3153 252.79 96.0717 253.525C97.6849 254.825 99.4695 255.895 101.375 256.707L138.287 274.2C140.163 275.223 142.184 275.957 144.279 276.374C145.229 276.387 146.155 276.08 146.91 275.504C148.136 274.632 149.118 273.459 149.763 272.099L150.728 270.074L152.287 270.827L140.694 295.224L139.125 294.492L140.09 292.466C141.193 290.132 141.31 288.103 140.44 286.377C139.867 285.253 137.87 283.877 134.447 282.251L117.02 273.987L104.483 300.57L121.899 308.833C123.776 309.844 125.797 310.56 127.892 310.955C128.857 310.973 129.799 310.655 130.554 310.053C131.769 309.192 132.744 308.035 133.386 306.691L134.362 304.633L135.921 305.365L124.254 329.879L122.695 329.137L123.649 327.111C124.774 324.744 124.89 322.708 124.021 320.99C123.437 319.929 121.443 318.518 118.007 316.885L81.0951 299.392C79.2079 298.358 77.1722 297.621 75.0599 297.207C74.1094 297.187 73.1807 297.494 72.4295 298.077C71.2038 298.946 70.2214 300.115 69.5763 301.471L68.6111 303.498L67.0625 302.755L78.7299 278.251L80.289 278.994L79.3026 281.052C78.666 282.395 78.3743 283.875 78.4541 285.359C78.479 286.404 78.9043 287.398 79.642 288.138C81.2453 289.451 83.0319 290.523 84.9454 291.32L101.365 299.095Z" fill="#9E1E2F"/>
<path d="M146.593 177.533L145.309 176.419L159.809 159.33L161.124 160.391L159.586 162.204C158.009 163.921 157.495 166.363 158.249 168.569C158.557 169.694 160.063 171.391 162.747 173.661L182.327 190.273C187.163 194.381 190.512 198.048 192.371 201.273C194.281 204.778 195.007 208.809 194.439 212.761C193.965 217.194 191.674 221.834 187.566 226.678C183.09 231.94 178.784 235.164 174.647 236.352C170.608 237.535 166.295 237.375 162.354 235.896C159.596 234.864 155.311 231.883 149.499 226.954L130.63 210.947C127.67 208.422 125.379 207.191 123.757 207.223C122.134 207.255 120.575 208.178 118.994 210.014L117.456 211.827L116.141 210.767L133.833 189.912L135.148 190.973L133.589 192.829C131.892 194.823 131.312 196.782 131.849 198.706C132.203 200.021 133.73 201.828 136.432 204.126L157.475 221.968C159.647 223.783 161.948 225.439 164.359 226.922C166.526 228.417 168.995 229.416 171.593 229.849C173.867 230.072 176.161 229.707 178.254 228.788C180.835 227.631 183.102 225.871 184.862 223.655C187.421 220.749 189.186 217.229 189.985 213.44C190.765 210.242 190.429 206.872 189.03 203.893C187.658 201.149 184.409 197.613 179.282 193.285L159.713 176.738C156.701 174.191 154.526 172.918 153.201 172.939C151.181 173.082 149.327 174.106 148.131 175.741L146.593 177.533Z" fill="#9E1E2F"/>
<path d="M166.203 152.773L179.631 142.07L239.485 155.108L216.744 126.541C214.326 123.494 212.473 121.867 211.186 121.662C209.468 121.354 207.644 121.969 205.692 123.529L203.974 124.897L202.913 123.539L220.149 109.812L221.21 111.171L219.449 112.56C217.328 114.226 216.373 116.039 216.511 118.012C216.585 119.221 217.741 121.195 219.947 123.974L253.189 165.726L251.873 166.787L187.47 152.911L211.748 183.408C214.177 186.452 215.991 188.087 217.274 188.32C219.29 188.519 221.292 187.839 222.769 186.452L224.519 185.052L225.579 186.41L208.375 200.073L207.315 198.726L209.033 197.357C211.154 195.667 212.148 193.843 212.014 191.884C211.929 190.675 210.783 188.702 208.566 185.911L181.148 151.479C179.207 151.028 177.223 150.787 175.23 150.758C173.699 150.881 172.196 151.238 170.775 151.819C169.517 152.396 168.346 153.145 167.296 154.046L166.203 152.773Z" fill="#9E1E2F"/>
<path d="M284.11 144.48L284.98 145.965L261.571 159.66L260.701 158.175L262.642 157.039C264.891 155.724 266.142 154.101 266.397 152.192C266.535 150.951 265.654 148.702 263.735 145.424L243.083 110.122C242.108 108.218 240.849 106.472 239.35 104.946C238.572 104.401 237.636 104.132 236.688 104.182C235.194 104.215 233.735 104.628 232.445 105.381L230.483 106.515L229.602 105.031L253.022 91.3359L253.881 92.821L251.908 93.9984C249.681 95.3031 248.44 96.9049 248.196 98.8249C248.026 100.077 248.899 102.344 250.816 105.625L271.467 140.905C272.436 142.813 273.696 144.559 275.2 146.081C275.987 146.638 276.944 146.901 277.905 146.825C279.397 146.806 280.859 146.398 282.148 145.646L284.11 144.48Z" fill="#9E1E2F"/>
<path d="M323.427 60.3613L324.074 61.9631C322.438 62.8805 321.088 64.2312 320.171 65.8667C319.124 68.4467 318.639 71.2204 318.749 74.0028L318.601 132.186L316.999 132.843L274.467 91.2295C273.159 89.8294 271.716 88.5611 270.16 87.4426C269.087 86.8253 267.885 86.4625 266.649 86.3818C265.061 86.3528 263.479 86.6116 261.983 87.1455L261.336 85.5438L285.317 75.8802L285.975 77.4714C283.373 78.8363 281.803 80.0172 281.265 81.0144C280.723 81.9432 280.661 83.0754 281.096 84.0588C281.679 85.4908 283.217 87.4744 285.826 89.9884L314.698 118.29V78.7231C314.698 74.8301 314.422 72.2313 313.902 70.9371C313.465 70.0127 312.648 69.3236 311.664 69.049C310.057 68.6235 308.363 68.6566 306.774 69.1444L305.979 69.3141L305.332 67.7124L323.427 60.3613Z" fill="#9E1E2F"/>
<path d="M353.093 57.1259L358.269 81.6082L371.888 78.7335C375.42 77.9911 377.658 76.9515 378.623 75.6362C379.903 73.8965 380.256 71.2411 379.684 67.6698L381.381 67.3198L385.931 88.8745L384.245 89.2351C383.647 87.2943 382.806 85.4372 381.741 83.7086C380.923 82.7282 379.805 82.0427 378.559 81.7567C376.577 81.4345 374.548 81.5393 372.609 82.0643L359.001 84.939L363.318 105.369C363.57 107.063 364.052 108.716 364.75 110.281C365.123 110.833 365.679 111.24 366.319 111.426C367.515 111.63 368.741 111.558 369.904 111.214L380.405 108.997C382.992 108.557 385.507 107.768 387.883 106.652C389.494 105.708 390.851 104.387 391.839 102.802C393.644 99.7645 394.988 96.4757 395.827 93.0432L397.662 92.6508L395.625 109.316L347.896 119.457L347.535 117.769L349.73 117.302C351.181 116.993 352.533 116.33 353.666 115.372C354.503 114.739 355.05 113.794 355.182 112.752C355.228 110.699 354.981 108.648 354.45 106.663L345.965 66.4181C345.138 62.5039 344.226 60.1597 343.239 59.4171C341.892 58.4306 339.93 58.2078 337.374 58.7488L335.178 59.2156L334.828 57.5183L382.558 47.4199L386.079 60.8067L384.287 61.178C383.466 58.9098 382.273 56.7945 380.755 54.9195C379.655 53.8288 378.242 53.1093 376.714 52.8616C374.497 52.7364 372.274 52.9619 370.127 53.5299L353.093 57.1259Z" fill="#9E1E2F"/>
<path d="M465.009 105.443L448.123 106.058L425.637 77.2694C424.046 77.3861 422.752 77.4604 421.755 77.5029H420.45H419.008L419.686 95.8858C419.824 99.8743 420.355 102.325 421.256 103.311C422.681 104.711 424.66 105.393 426.644 105.167L429.126 105.072L429.19 106.801L402.09 107.798L401.994 106.016L404.37 105.931C407.043 105.832 408.924 104.892 410.013 103.11C410.628 102.12 410.869 99.8213 410.734 96.2146L409.239 55.3436C409.09 51.3692 408.563 48.8941 407.658 47.9182C406.192 46.5248 404.186 45.8494 402.175 46.0724L399.873 46.2633L399.82 44.5344L422.868 43.6857C429.586 43.4383 434.554 43.7494 437.771 44.6192C440.984 45.4723 443.875 47.2501 446.086 49.7321C448.386 52.273 449.68 55.5658 449.724 58.9925C449.924 62.7255 448.699 66.3951 446.299 69.2607C443.859 72.2237 440.006 74.3877 434.737 75.7526L448.473 93.4249C451.605 97.477 454.272 100.15 456.47 101.445C459.082 102.859 461.987 103.647 464.956 103.746L465.019 105.486L465.009 105.443ZM418.891 74.5645H420.44H421.5C427.525 74.3524 432.033 72.8673 435.002 70.1517C437.9 67.5985 439.464 63.856 439.245 60.0003C439.258 56.4109 437.788 52.9755 435.183 50.5064C432.464 48.0682 428.862 46.8559 425.223 47.1544C422.756 47.3034 420.306 47.6726 417.904 48.2576L418.891 74.5645Z" fill="#9E1E2F"/>
<path d="M513.458 47.2291L510.637 68.9428L508.918 68.7201C509.032 65.1993 508.459 61.6901 507.232 58.3883C506.1 55.7044 504.241 53.3899 501.865 51.7055C499.53 49.9618 496.787 48.8444 493.899 48.4595C490.979 47.9743 487.985 48.6563 485.562 50.3582C483.376 51.7704 481.909 54.0612 481.542 56.638C481.28 58.5829 481.748 60.556 482.858 62.1751C484.456 64.728 488.603 68.4054 495.299 73.2071C499.207 75.8623 502.909 78.8091 506.373 82.022C508.24 83.8777 509.669 86.1288 510.552 88.6093C511.406 90.9854 511.682 93.5306 511.358 96.0347C510.765 100.744 508.161 104.964 504.22 107.608C500.083 110.578 495.116 111.684 489.317 110.928C487.592 110.722 485.889 110.367 484.226 109.867C482.272 109.164 480.363 108.343 478.509 107.406C476.748 106.474 474.892 105.734 472.972 105.199C472.296 105.077 471.598 105.247 471.052 105.666C470.345 106.425 469.871 107.373 469.684 108.393L467.977 108.181L470.777 86.5727L472.484 86.7848C472.707 91.3991 473.344 94.9209 474.415 97.3288C475.633 99.9108 477.533 102.111 479.909 103.693C482.547 105.551 485.605 106.726 488.808 107.109C492.679 107.619 495.851 106.993 498.354 105.242C500.695 103.71 502.246 101.228 502.597 98.4532C502.784 96.8103 502.554 95.1465 501.928 93.6161C501.181 91.7572 500.046 90.0791 498.598 88.6942C495.692 86.1477 492.658 83.7508 489.508 81.5129C485.799 78.8673 482.282 75.9605 478.986 72.8146C477.087 70.9429 475.592 68.7007 474.595 66.2273C473.702 63.8827 473.418 61.3499 473.768 58.8656C474.328 54.4181 476.774 50.4265 480.482 47.9079C484.484 45.0807 489.435 43.9379 494.27 44.7256C497.926 45.2792 501.426 46.5869 504.548 48.5656C505.613 49.3152 506.801 49.8716 508.059 50.2097C508.779 50.3262 509.518 50.1589 510.117 49.743C510.9 48.9999 511.459 48.0516 511.729 47.0062L513.458 47.2291Z" fill="#9E1E2F"/>
<path d="M541.406 118.544L540.971 120.22L514.688 113.505L515.122 111.84L517.245 112.392C519.776 113.035 521.805 112.766 523.333 111.585C524.301 110.801 525.256 108.57 526.197 104.892L536.305 65.2619C536.958 63.2293 537.287 61.1066 537.28 58.9716C537.121 58.0297 536.641 57.1716 535.922 56.5425C534.829 55.516 533.495 54.7857 532.041 54.421L529.919 53.8693L530.344 52.1934L556.627 58.8974L556.192 60.5839L553.974 60.0112C551.471 59.3676 549.46 59.6398 547.94 60.8279C546.943 61.6023 545.967 63.8299 545.034 67.5001L534.926 107.131C534.278 109.168 533.945 111.293 533.939 113.431C534.107 114.379 534.603 115.239 535.339 115.86C536.414 116.888 537.738 117.619 539.179 117.981L541.406 118.544Z" fill="#9E1E2F"/>
<path d="M616.331 80.8867L611.515 94.9524L609.882 94.2947C610.445 92.443 610.703 90.512 610.646 88.5772C610.473 86.6908 609.734 84.901 608.524 83.4431C607.034 81.8475 605.177 80.6388 603.115 79.9214L594.831 76.6436L577.001 121.578C575.57 125.205 575.071 127.613 575.495 128.822C576.326 130.669 577.916 132.067 579.855 132.652L581.891 133.469L581.255 135.071L556.297 125.184L556.934 123.583L559.055 124.399C561.537 125.383 563.598 125.33 565.239 124.24C566.236 123.572 567.36 121.578 568.696 118.289L586.505 73.3128L579.43 70.5125C577.491 69.6467 575.437 69.0677 573.331 68.794C571.498 68.7926 569.708 69.3678 568.219 70.4382C566.28 71.8817 564.755 73.8095 563.796 76.0284L562.152 75.3919L568.315 61.8672L616.331 80.8867Z" fill="#9E1E2F"/>
<path d="M665.794 109.506L684.546 121.174L683.634 122.638L682.574 122.001C681.456 121.453 680.241 121.125 678.999 121.036C677.244 120.826 675.465 120.956 673.759 121.418C671.194 122.203 668.707 123.229 666.335 124.483L640.645 136.841L632.266 150.324C630.222 153.626 629.314 155.917 629.54 157.197C629.858 158.937 631.099 160.475 633.263 161.812L635.013 162.873L634.101 164.336L611.297 150.218L612.209 148.753L614.118 149.932C616.388 151.353 618.435 151.671 620.228 150.876C621.288 150.398 622.826 148.647 624.693 145.571L632.606 132.842L631.842 101.157C631.844 98.7594 631.688 96.3639 631.375 93.9865C630.845 92.2761 630.039 90.6638 628.989 89.2131C628.45 88.4545 627.746 87.8273 626.931 87.378L627.854 85.9141L650.849 100.203L649.937 101.666L648.738 100.924C647.546 100.171 646.18 99.7395 644.771 99.6722C643.482 99.5547 642.24 100.196 641.589 101.316C640.995 102.26 640.741 104.498 640.805 107.978L641.271 132.28L662.103 122.256C665.242 120.75 667.186 119.392 667.936 118.183C668.386 117.485 668.615 116.668 668.594 115.838C668.559 114.98 668.283 114.149 667.798 113.441C667.008 112.422 666.02 111.574 664.892 110.948L665.794 109.506Z" fill="#9E1E2F"/>
<path d="M736.199 166.607C741.855 172.534 744.525 179.836 744.207 188.512C743.889 197.189 740.353 204.75 733.6 211.191C726.663 217.846 718.801 221.176 710.011 221.183C693.205 221.284 679.5 207.741 679.399 190.933C679.396 190.476 679.403 190.019 679.421 189.562C679.796 181.006 683.534 173.322 690.633 166.512C697.888 159.561 706.175 156.36 715.495 156.912C723.403 157.317 730.84 160.796 736.22 166.607H736.199ZM733.123 168.327C729.593 164.382 724.402 162.348 719.133 162.842C712.408 163.372 705.408 167.127 698.131 174.107C690.664 181.257 686.446 188.353 685.478 195.397C684.706 200.578 686.456 205.817 690.187 209.494C694.074 213.705 699.703 215.858 705.408 215.318C711.432 214.915 718.054 211.255 725.274 204.339C733.094 196.85 737.45 189.724 738.341 182.965C739.041 177.568 737.302 172.689 733.123 168.327Z" fill="#9E1E2F"/>
<path d="M771.429 217.299L750.767 231.153L757.131 240.7C758.606 242.885 760.165 244.179 761.819 244.55C763.474 244.921 765.85 244.306 768.937 242.726L769.902 244.158L752.104 256.091L751.149 254.659C752.734 253.691 754.088 252.388 755.116 250.841C755.716 249.766 755.975 248.534 755.859 247.309C755.572 245.688 754.903 244.161 753.907 242.853L747.49 233.306L730.975 244.38C729.135 245.467 727.472 246.831 726.043 248.422C725.543 249.245 725.337 250.214 725.46 251.17C725.58 252.668 726.084 254.112 726.924 255.359L728.196 257.258L726.764 258.224L711.703 235.662L713.135 234.706L714.376 236.563C715.84 238.684 717.558 239.883 719.457 240.021C720.697 240.085 722.893 239.056 726.043 236.956L759.985 214.17C761.819 213.079 763.482 211.72 764.917 210.139C765.411 209.324 765.623 208.371 765.521 207.424C765.408 205.907 764.904 204.445 764.057 203.181L762.806 201.313L764.238 200.359L790.468 239.48L779.278 247.807L778.366 246.45C780.005 244.713 781.307 242.689 782.205 240.477C782.754 238.876 782.853 237.156 782.492 235.502C781.787 233.13 780.67 230.9 779.193 228.915L771.429 217.299Z" fill="#9E1E2F"/>
<path d="M831.063 327.704L811.409 336.593L810.9 335.224C816.267 331.172 819.65 326.972 821.05 322.622C822.445 318.178 822.258 313.388 820.52 309.066C819.157 305.28 816.734 301.966 813.541 299.519C810.359 297.087 806.24 295.778 801.184 295.594C796.146 295.403 790.354 296.517 783.853 298.946C779.031 300.615 774.607 303.268 770.859 306.732C767.713 309.698 765.573 313.575 764.739 317.817C763.945 322.189 764.386 326.697 766.012 330.833C767.265 334.41 769.425 337.602 772.281 340.093C775.025 342.427 779.504 344.442 785.719 346.139L785.359 347.816C778.995 346.819 773.819 344.781 769.884 341.727C765.757 338.415 762.653 334.001 760.931 328.998C757.269 319.175 758.075 310.204 763.35 302.086C767.385 295.953 773.325 291.32 780.257 288.9C785.919 286.717 792.038 285.987 798.055 286.779C803.78 287.488 809.19 289.792 813.668 293.43C818.102 297.058 821.471 301.819 823.415 307.21C825.027 311.638 825.567 316.385 824.996 321.063C824.797 322.046 824.797 323.06 824.996 324.043C825.277 324.814 825.853 325.44 826.597 325.784C827.829 326.276 829.173 326.416 830.479 326.187L831.063 327.704Z" fill="#9E1E2F"/>
<path d="M808.854 366.942L813.903 395.91L831.744 392.813C833.883 392.567 835.971 391.996 837.938 391.116C838.732 390.571 839.31 389.764 839.571 388.836C840.077 387.436 840.209 385.93 839.953 384.465L839.571 382.259L841.268 381.951L845.914 408.629L844.206 408.936L843.825 406.72C843.572 405.259 842.96 403.884 842.043 402.721C841.432 401.858 840.499 401.276 839.455 401.109C837.379 401.001 835.298 401.179 833.271 401.639L793.04 408.629C790.912 408.875 788.834 409.443 786.877 410.315C786.096 410.854 785.517 411.638 785.233 412.544C784.738 413.963 784.611 415.485 784.862 416.967L785.244 419.183L783.547 419.48L778.912 392.803L780.609 392.495L780.991 394.712C781.436 397.258 782.507 398.955 784.173 399.889C785.283 400.483 787.708 400.454 791.449 399.804L810.456 396.494L805.407 367.525L786.464 370.856C784.339 371.103 782.265 371.671 780.312 372.542C779.514 373.086 778.932 373.893 778.668 374.822C778.167 376.222 778.036 377.729 778.286 379.193L778.689 381.453L776.981 381.75L772.336 354.944L774.043 354.647L774.425 356.864C774.871 359.431 775.953 361.171 777.607 362.072C778.724 362.645 781.15 362.606 784.883 361.955L825.125 354.954C827.263 354.711 829.353 354.143 831.319 353.268C832.107 352.729 832.69 351.941 832.974 351.03C833.469 349.614 833.598 348.096 833.345 346.617L832.953 344.4L834.66 344.104L839.306 370.834L837.598 371.121L837.206 368.872C836.956 367.412 836.344 366.035 835.424 364.872C834.804 364.032 833.885 363.463 832.857 363.281C830.778 363.155 828.693 363.327 826.663 363.79L808.854 366.942Z" fill="#9E1E2F"/>
<path d="M784.967 448.801H783.238L782.422 421.773L784.151 421.72L784.225 423.958C784.302 426.568 785.119 428.446 786.675 429.592C787.693 430.299 790.101 430.599 793.898 430.493L834.744 429.199C836.894 429.261 839.04 428.992 841.108 428.404C841.962 427.984 842.649 427.288 843.06 426.43C843.748 425.089 844.088 423.598 844.046 422.092L843.972 419.864L845.712 419.801L846.518 446.924L844.789 446.977L844.725 444.686C844.64 442.098 843.82 440.239 842.264 439.107C841.246 438.398 838.838 438.08 835.041 438.151L794.174 439.372C792.024 439.311 789.877 439.584 787.81 440.178C786.945 440.6 786.258 441.314 785.869 442.193C785.175 443.498 784.831 444.96 784.872 446.436L784.967 448.801Z" fill="#9E1E2F"/>
<path d="M847.759 454.941L845.818 472.01L794.269 505.095L830.502 509.221C834.373 509.666 836.866 509.497 837.926 508.743C839.358 507.746 840.217 506.007 840.493 503.546L840.737 501.36L842.466 501.552L839.963 523.446L838.255 523.254L838.51 521.027C838.807 518.365 838.213 516.392 836.738 515.087C835.826 514.302 833.556 513.708 830.088 513.305L777.055 507.269L777.246 505.593L832.623 469.888L793.898 465.486C790.027 465.04 787.534 465.189 786.473 465.91C784.905 467.192 783.968 469.093 783.907 471.119L783.652 473.335L781.934 473.145L784.426 451.25L786.145 451.441L785.954 453.594C785.657 456.289 786.24 458.284 787.725 459.578C788.637 460.376 790.857 460.975 794.386 461.37L838.117 466.345C839.805 465.29 841.377 464.06 842.805 462.675C843.79 461.493 844.591 460.171 845.181 458.75C845.663 457.451 845.963 456.09 846.072 454.708L847.759 454.941Z" fill="#9E1E2F"/>
<path d="M784.403 562.927L791.828 539.591L783.618 532.452C782.236 531.113 780.623 530.034 778.856 529.269C777.877 528.983 776.819 529.185 776.013 529.81C775.037 530.462 773.977 532.208 772.831 535.051L771.187 534.521L777.254 515.533L778.888 516.053C778.538 518.716 778.591 520.53 779.068 521.495C780.015 523.468 782.374 526.066 786.143 529.291L828.993 566.344L828.495 567.913L771.633 572.888C767.064 573.291 763.961 573.999 762.32 575.01C760.5 576.233 759.141 578.029 758.459 580.112L756.805 579.603L764.399 555.8L766.054 556.33C765.396 558.77 765.276 560.52 765.693 561.58C766.033 562.565 766.82 563.329 767.814 563.639C770.034 564.1 772.318 564.165 774.56 563.83L784.403 562.959V562.927ZM788.084 562.736L815.725 560.286L794.702 541.999L788.084 562.736Z" fill="#9E1E2F"/>
<path fill-rule="evenodd" clip-rule="evenodd" d="M115.685 607.895C115.685 612.757 111.743 616.698 106.881 616.698C102.019 616.698 98.0781 612.757 98.0781 607.895C98.0781 603.032 102.019 599.09 106.881 599.09C111.741 599.097 115.679 603.034 115.685 607.895Z" fill="#9E1E2F"/>
<path fill-rule="evenodd" clip-rule="evenodd" d="M791.716 607.895C791.716 612.757 787.775 616.698 782.913 616.698C778.05 616.698 774.109 612.757 774.109 607.895C774.109 603.032 778.05 599.09 782.913 599.09C787.772 599.097 791.71 603.034 791.716 607.895Z" fill="#9E1E2F"/>
<path d="M723.461 767.008C721.923 766.625 721.955 766.637 717.097 763.082C713.915 760.717 713.862 760.569 714.191 750.173C714.52 739.778 714.541 739.672 710.818 735.811C707.583 732.469 706.894 732.129 705.695 733.285C704.621 734.498 703.718 735.85 703.012 737.306C701.877 739.661 701.739 739.173 701.951 733.349C702.184 725.988 700.996 720.514 699.236 720.896C698.62 721.034 697.22 724.535 696.128 728.671C695.035 732.808 693.572 736.723 692.946 737.37C692.21 738.233 691.83 739.345 691.885 740.478C691.994 741.458 691.738 742.444 691.164 743.246C690.697 743.702 690.337 745.612 690.358 747.49C690.379 749.367 690.029 751.255 689.584 751.732C689.138 752.21 688.777 754.373 688.788 756.644C688.799 758.914 688.385 761.184 687.897 761.661C687.409 762.138 685.892 762.191 684.577 761.757C683.462 761.355 682.283 761.157 681.098 761.173C680.483 761.29 680.038 760.558 680.038 759.466C679.861 757.188 679.542 754.924 679.083 752.687C677.895 746.577 678.69 741.358 682.085 732.744C683.57 729.011 684.609 725.776 684.397 725.553C682.569 724.889 680.685 724.399 678.765 724.089C671.679 722.658 666.037 719.411 663.194 715.073C662.232 713.774 661.461 712.346 660.903 710.829C661.268 709.796 661.842 708.85 662.59 708.05C663.512 706.936 664.265 706.311 664.255 706.661C664.244 707.011 665.75 707.944 667.596 708.782C670.01 709.985 672.21 711.577 674.108 713.492C677.439 716.939 683.654 720.175 684.811 719.05C685.648 718.255 678.86 710.108 676.845 709.503C676.06 709.259 674.787 707.7 674.002 706.024C672.942 703.744 671.308 702.1 667.416 699.436C661.741 695.565 656.809 693.486 655.748 694.515C655.006 695.226 656.109 697.283 659.811 702.1C663.852 707.403 662.293 707.032 656.936 701.474C653.51 697.93 651.633 695.31 651.463 693.73C651.177 691.545 651.389 691.28 654.147 690.548C656.268 689.975 658.654 690.548 662.473 692.532C665.411 694.069 668.02 695.109 668.285 694.854C668.551 694.6 668.285 692.372 667.617 689.901C666.482 685.424 666.482 685.424 662.229 685.488C658.559 685.551 657.626 685.116 655.239 682.306C652.853 679.495 652.694 678.784 654.179 677.001C656.544 674.138 661.677 674.286 667.341 677.383C671.955 679.919 672.083 680.068 674.087 685.763C675.148 688.946 676.665 691.8 677.269 692.128C677.874 692.457 677.439 689.933 676.209 686.57C675.207 683.992 674.341 681.366 673.61 678.699C673.284 677.256 672.855 675.838 672.326 674.456C669.41 666.744 669.007 664.495 670.269 662.872C671.112 661.756 672.601 661.347 673.896 661.875C676.166 662.607 677.396 664.272 682.498 673.607C683.734 675.823 685.123 677.95 686.656 679.972C688.894 682.815 699.14 699.947 700.445 702.98C700.848 703.935 701.505 704.423 701.834 704.041C702.917 702.483 703.875 700.84 704.698 699.129C706.221 696.345 708.2 693.835 710.553 691.704C714.223 688.521 714.223 688.521 718.561 691.11C723.588 694.048 723.949 695.353 720.682 699.118C719.505 700.477 716.737 703.892 714.53 706.735C712.324 709.577 710.288 711.891 709.959 711.891C709.63 711.891 709.492 710.012 709.588 707.647C709.683 705.282 709.45 703.404 709.079 703.404C708.485 703.404 707.201 705.462 705.08 709.874C704.125 711.827 706.438 716.908 709.895 720.482C711.407 722.041 712.5 723.958 713.077 726.052C713.191 727.465 713.981 728.738 715.199 729.467C715.995 729.755 716.72 730.216 717.32 730.814C717.543 731.164 717.872 731.323 718.052 731.143C718.232 730.962 719.484 727.494 720.841 723.41C722.655 717.99 724.204 715.115 726.622 712.803C728.796 710.681 729.475 709.62 728.563 709.62C726.336 709.62 721.732 716.399 719.579 722.944C717.426 729.488 715.899 731.069 717.458 725.065C718.859 719.358 721.747 714.124 725.826 709.896C728.457 707.361 729.91 706.714 732.466 706.809C734.242 706.807 735.934 707.559 737.123 708.877C738.183 710.373 738.077 711.115 736.539 712.326C735.419 713.18 734.033 713.612 732.625 713.545C731.278 713.323 730.207 713.959 729.104 715.667C728.224 716.982 726.717 719.156 725.752 720.493C724.787 721.829 723.705 725.436 723.355 728.491L722.708 734.071L728.499 734.23C731.681 734.305 734.683 734.792 735.16 735.291C735.975 736.529 736.584 737.89 736.963 739.322C737.632 741.56 737.26 743.49 735.648 746.185C733.57 749.973 731.694 753.867 730.027 757.853C728.841 760.886 727.423 763.822 725.784 766.637C725.134 767.12 724.302 767.292 723.514 767.103L723.461 767.008ZM725.339 742.217C725.02 741.899 723.631 742.026 722.241 742.525C720.003 743.32 719.749 743.872 719.982 747.352C720.131 749.526 720.703 751.743 721.255 752.316C722.019 753.111 722.666 752.135 724.076 748.073C725.073 745.167 725.646 742.525 725.339 742.207V742.217ZM716.853 747.967C716.83 745.811 716.681 743.656 716.408 741.517C716.281 741.4 715.888 741.931 715.538 742.694C714.732 744.435 715.538 755.646 716.44 754.798C716.79 754.458 716.97 751.382 716.853 747.967ZM685.033 737.624C686.041 734.64 687.289 731.74 688.767 728.958C689.955 726.837 690.687 724.864 690.39 724.556C690.093 724.248 689 724.429 687.95 724.948C684.874 726.476 681.278 737.211 681.841 743.182C682.254 747.649 682.413 747.956 682.901 745.411C683.22 743.776 684.174 740.276 685.023 737.624H685.033ZM695.799 716.664C696.658 714.776 696.637 714.765 694.388 715.402C692.437 715.953 692.267 716.324 693.084 717.82C694.144 719.74 694.452 719.602 695.799 716.664ZM697.517 707.223C696.128 703.065 695.863 702.641 695.11 703.394C694.6 703.903 695.81 711.636 696.52 712.368C696.722 712.58 697.305 712.368 697.814 711.827C698.323 711.285 698.207 709.259 697.517 707.223ZM688.47 708.283C688.067 707.87 688.226 707.424 688.83 707.297C689.435 707.17 689.615 706.024 689.255 704.762C688.894 703.5 688.449 702.524 688.258 702.577C688.067 702.63 686.794 702.98 685.436 703.341C684.304 703.601 683.226 704.061 682.254 704.698C681.459 705.462 683.994 708.443 686.412 709.567C688.13 710.373 689.594 709.45 688.533 708.283H688.47ZM678.924 701.315C678.552 700.828 677.858 700.729 677.365 701.092C676.962 701.485 677.503 702.672 678.553 703.744C680.048 705.271 680.387 705.324 680.122 703.967C679.933 703.002 679.523 702.094 678.924 701.315ZM686.253 693.772C685.712 691.938 684.895 690.442 684.45 690.431C683.304 690.431 683.113 697.018 684.217 698.164C685.935 699.947 687.25 697.103 686.253 693.772ZM688.937 690.506C687.197 688.383 687.123 688.383 687.367 690.665C687.674 693.613 689.308 695.533 690.156 693.942C690.496 693.306 689.944 691.757 688.937 690.506ZM683.442 682.189C682.724 680.95 681.765 679.868 680.621 679.007C678.627 677.426 678.5 677.447 679.178 679.262C679.698 680.887 679.995 682.574 680.059 684.279C680.175 687.291 680.175 687.291 682.106 685.413C683.167 684.353 683.771 682.921 683.442 682.157V682.189ZM664.424 680.598C661.805 677.978 656.279 679.071 656.926 682.072C657.191 683.292 661.317 684.926 663.205 684.565C664.489 684.268 665.289 682.987 664.993 681.702C664.904 681.321 664.724 680.967 664.467 680.672L664.424 680.598Z" fill="#9E1E2F"/>
<path d="M328.553 843.076C329.041 842.1 329.889 841.517 330.462 841.793C331.035 842.069 331.268 841.454 330.886 840.053C330.017 836.966 332.743 829.605 337.685 821.659C341.843 814.976 341.843 814.976 339.754 812.876C338.597 811.709 337.993 810.118 338.396 809.302C338.799 808.485 340.666 807.721 342.554 807.605C347.496 807.297 348.165 806.544 359.365 788.924C366.451 777.765 370.587 768.77 372.157 761.164C372.921 757.462 373.886 754.312 374.278 754.163C376.124 753.527 377.375 756.942 378.054 764.368C378.754 772.291 378.733 772.44 375.074 778.603C373.048 782.029 369.198 788.627 366.535 793.262C361.762 801.6 361.709 801.749 362.982 805.047C363.693 806.883 363.947 809.058 363.544 809.885C361.868 813.322 357.117 817.311 351.972 819.697C347.454 821.744 346.139 822.879 344.548 826.061C342.363 830.538 342.66 831.196 349.65 837.167C353.129 840.138 354.603 842.228 355.377 845.272C355.95 847.542 356.056 850.119 355.621 851.011C354.773 852.772 350.169 852.814 348.568 851.107C348.037 850.523 343.424 848.984 338.332 847.796C333.241 846.608 328.786 845.388 328.341 845.187C327.895 844.985 328.023 844.042 328.5 843.066L328.553 843.076ZM306.905 831.472C307.645 832.748 308.559 833.914 309.62 834.94C310.394 835.332 315.581 831.026 317.554 828.364C318.233 827.44 320.672 826.146 322.974 825.478C325.816 824.83 328.242 822.991 329.635 820.429C331.35 817.551 332.731 814.486 333.75 811.296C335.309 806.236 345.121 787.026 350.721 778.062C352.058 776.03 353.128 773.834 353.903 771.527C354.582 768.345 349.978 762.374 346.181 761.461C343.54 760.814 343.127 761.079 341.451 764.538C340.172 766.989 339.796 769.813 340.39 772.514C341.186 776.757 341.186 776.757 330.43 797.665C323.897 810.394 318.922 819.156 317.777 819.941C315.443 821.638 311.604 821.85 310.235 820.376C308.517 818.541 310.606 815.888 317.808 810.744C325.71 805.1 328.542 800.879 327.132 796.817C326.41 794.694 325.477 793.931 322.825 793.199C318.116 791.894 310.935 792.477 308.496 794.344C307.415 795.197 306.232 795.91 304.974 796.467C302.683 797.251 302.651 798.132 304.783 801.006C307.329 804.432 311.031 806.204 313.895 805.376C317.607 804.316 317.914 806.438 314.489 809.429C310.373 813.025 304.72 822.625 304.836 825.828C305.127 827.843 305.852 829.772 306.958 831.482L306.905 831.472Z" fill="#9E1E2F"/>
<path d="M542.001 847.139C538.819 847.383 534.577 845.516 533.516 843.458C532.275 840.912 533.707 839.098 536.868 839.214C538.682 839.278 539.827 838.504 542.171 835.534C545.82 831.004 547.984 822.656 546.202 820.014C544.971 818.19 544.939 818.211 543.974 821.691C543.542 823.707 542.262 825.438 540.463 826.443C538.342 827.504 537.281 827.164 534.099 824.629C530.917 822.094 530.207 821.15 530.143 818.678C530.069 815.931 530.196 815.814 532.434 816.451C534.672 817.087 534.948 816.907 537.133 813.459C538.672 810.952 540.026 808.335 541.185 805.631C542.702 801.95 542.617 800.529 540.485 793.241C537.557 783.174 531.225 766.107 527.895 759.297C526.537 756.518 525.667 753.866 525.964 753.399C526.94 751.85 532.105 754.672 535.33 758.512C538.363 762.108 542.754 771.803 544.282 778.401C544.897 781.032 545.067 781.064 548.44 779.462C550.379 778.388 552.653 778.089 554.804 778.624C557.614 779.473 559.821 782.241 558.707 783.493C558.389 783.853 556.798 789.264 555.164 795.522C552.629 805.238 552.428 807.381 553.796 810.182C555.09 812.823 556.289 813.714 559.81 814.679C567.033 816.652 579.369 817.172 587.154 815.846C592.457 814.934 595.173 815.029 597.103 816.185C598.567 817.055 599.574 818.243 599.352 818.837C599.129 819.431 594.717 821.638 589.562 823.77C581.67 827.016 579.719 827.482 577.152 826.687C575.038 826.162 572.828 826.162 570.714 826.687C565.665 828.14 562.441 827.376 559.29 823.961C557.752 822.275 556.108 821.055 555.737 821.256C554.995 821.617 554.22 827.493 554.135 833.349C554.04 838.769 552.141 842.121 547.697 844.678C545.934 845.781 544.014 846.611 542.001 847.139Z" fill="#9E1E2F"/>
<path d="M158.625 743.374C171.353 729.585 176.529 722.754 176.476 719.91C176.476 718.85 177.377 718.234 179.711 717.842C182.638 717.354 183.084 716.972 184.218 714.024C185.353 711.075 185.279 710.767 183.497 710.969C182.437 711.096 179.965 712.454 178.088 714.002C175.341 716.272 174.683 717.407 174.63 719.953C174.556 724.324 172.509 725.406 169.825 722.542C167.142 719.677 165.254 709.6 166.421 704.243C167.004 701.57 168.542 698.939 171.331 695.916C175.362 691.504 178.258 690.263 178.873 692.681C179.042 693.37 178.555 696.415 177.812 699.438C176.242 705.622 176.38 705.675 184.908 702.705C187.565 701.731 190.311 701.02 193.107 700.584C195.292 700.393 197.615 698.928 202.197 694.834C206.202 691.355 210.491 688.219 215.02 685.457C221.013 681.936 222.031 681.023 225.118 676.217C228.204 671.413 228.788 670.914 231.312 670.702C232.804 670.576 234.279 671.102 235.353 672.145C236.414 673.513 236.181 674.17 233.805 676.217C231.62 678.442 229.775 680.976 228.332 683.739C226.327 687.546 225.15 688.969 223.484 689.499C221.14 690.252 215.901 696.839 216.325 698.504C216.463 699.046 217.767 699.704 219.231 699.979C221.39 700.587 223.43 701.556 225.266 702.843C227.886 704.678 229.01 706.248 230.251 709.865C232.055 715.106 232.139 719.242 230.453 720.983C229.838 721.63 227.695 721.746 225.712 721.247C218.873 719.678 211.812 719.319 204.848 720.186C201.423 720.642 198.219 721.439 197.731 721.958C197.244 722.478 197.731 724.154 198.792 725.692C203.226 731.939 198.962 735.716 191.749 731.939C189.426 730.73 186.849 729.818 186.011 729.903C184.176 730.104 171.416 740.256 168.245 744.033C164.925 748 153.565 757.462 152.42 757.207C151.868 757.091 154.106 754.099 157.384 750.567C163.355 744.15 163.355 744.15 155.591 751.171C151.348 755.033 147.71 758.236 147.572 758.289C147.435 758.342 147 758.088 146.628 757.738C146.257 757.388 151.38 751.214 158.614 743.364L158.625 743.374ZM211.658 707.531C212.263 706.916 210.969 706.662 208.476 706.916C204.233 707.351 202.027 708.444 201.624 710.279C201.369 711.489 210.141 709.08 211.637 707.531H211.658Z" fill="#9E1E2F"/>
</svg>
