<svg width="89" height="88" viewBox="0 0 89 88" fill="none" xmlns="http://www.w3.org/2000/svg">
<path d="M67.1999 78.0567C62.1757 77.9731 57.6647 79.4768 53.7129 82.5736C52.8015 83.2877 51.9619 84.1047 51.1531 84.9363C49.4703 86.6668 47.4512 87.7025 45.0582 87.9422C41.8229 88.2661 39.0558 87.2271 36.8084 84.8819C35.036 83.0324 33.0611 81.4681 30.7692 80.3105C28.491 79.1598 26.0925 78.3981 23.5527 78.1486C22.3514 78.0307 21.136 77.9969 19.9283 78.0134C14.9407 78.0813 10.5244 74.1702 10.0724 69.2185C9.99157 68.332 10.037 67.4344 10.0136 66.5422C9.88041 61.4313 8.18308 56.9103 4.8544 53.0242C4.07666 52.1162 3.1796 51.3112 2.38209 50.419C-0.157239 47.5785 -0.718402 43.1814 0.94984 39.7539C1.62315 38.3706 2.65062 37.3 3.71638 36.2293C7.08212 32.8477 9.14274 28.7885 9.78661 24.0546C9.9679 22.7218 10.0149 21.3588 9.99007 20.012C9.8976 14.9967 13.7369 10.5891 18.7381 10.0744C19.576 9.98815 20.4273 10.029 21.2725 10.0153C26.7057 9.92725 31.4352 8.03729 35.4868 4.43778C36.1444 3.85357 36.7166 3.17414 37.363 2.57619C41.3507 -1.11339 47.6388 -0.78955 51.2967 3.22459C53.5496 5.6969 56.2968 7.47834 59.4292 8.65697C62.1838 9.69339 65.0359 10.091 67.9731 10.0074C73.0303 9.86351 77.455 13.7659 77.9328 18.7861C78.0169 19.6719 77.9695 20.5699 77.9916 21.4621C78.1212 26.6681 79.8968 31.2424 83.3049 35.173C84.0575 36.0411 84.9664 36.7782 85.6846 37.6712C88.2443 40.8541 88.6897 44.3581 87.1022 48.1169C86.533 49.4642 85.5767 50.5192 84.5398 51.5283C80.8767 55.0939 78.7222 59.4257 78.1454 64.5064C77.9936 65.8441 78.0561 67.2052 77.9969 68.5546C77.8878 71.041 76.9639 73.1869 75.2414 74.9827C73.8164 76.4679 72.0899 77.4377 70.0681 77.8064C69.1281 77.9777 68.1571 77.9786 67.1999 78.0567ZM21.2415 10.9187C20.9828 10.9187 20.724 10.9261 20.4656 10.9175C18.6068 10.856 16.8582 11.2624 15.2934 12.2715C12.2936 14.206 10.8344 16.9835 10.9214 20.555C10.9565 21.9937 10.8898 23.4231 10.6453 24.8412C9.80665 29.7066 7.58726 33.8395 3.99767 37.2222C2.45106 38.6796 1.46251 40.4232 1.13778 42.5136C0.715268 45.2334 1.3431 47.7069 3.11045 49.8337C3.79865 50.6619 4.64359 51.3579 5.35706 52.1672C8.8782 56.1608 10.7518 60.8205 10.9253 66.1505C10.9539 67.0306 10.8941 67.9166 10.9694 68.7919C11.3809 73.5782 15.5589 77.2605 20.3641 77.087C22.7806 76.9997 25.151 77.2659 27.4671 77.9615C31.0726 79.0446 34.1946 80.9332 36.8494 83.6051C37.4515 84.2111 38.0606 84.8296 38.7504 85.3258C42.4194 87.9649 47.6473 87.4102 50.7018 84.098C53.2817 81.3006 56.3852 79.3141 60.0002 78.1327C62.5049 77.3141 65.0775 77.0042 67.7125 77.0685C68.5694 77.0893 69.4588 76.9856 70.2876 76.7659C74.4758 75.6546 77.238 71.8582 77.0934 67.5252C77.068 66.7624 77.0624 65.9942 77.1199 65.2341C77.51 60.0781 79.4678 55.5988 82.984 51.8067C83.5746 51.1698 84.2381 50.5983 84.8066 49.9433C87.8715 46.4117 87.7013 40.9289 84.4075 37.6179C83.3123 36.517 82.2127 35.4295 81.2964 34.1688C78.6194 30.4853 77.212 26.3707 77.0791 21.821C77.0533 20.9407 77.1096 20.0545 77.0325 19.1795C76.6121 14.4106 72.4323 10.7424 67.6458 10.9161C65.8521 10.9811 64.0747 10.8595 62.3174 10.4848C57.8176 9.52557 53.9706 7.38774 50.8199 4.0361C49.4456 2.57415 47.8243 1.57611 45.8565 1.20865C42.5977 0.60006 39.7507 1.4325 37.4107 3.8127C36.3953 4.84549 35.3557 5.84246 34.1834 6.69759C30.3269 9.51059 26.006 10.8978 21.2415 10.9187Z" fill="#C6001A"/>
<path d="M7.28345 43.9798C7.31448 23.5184 24.065 7.21202 44.0948 7.27993C64.56 7.34934 80.9338 24.1809 80.7208 44.3747C80.5082 64.5229 63.9814 80.8039 43.8752 80.7193C23.4215 80.6331 7.24817 63.8938 7.28345 43.9798ZM44.0461 8.29826C24.3329 8.26147 8.1322 24.406 8.29966 44.3204C8.46314 63.7634 24.3482 79.7001 44.0105 79.7055C63.7285 79.7108 79.9163 63.5457 79.7046 43.601C79.4981 24.1584 63.5939 8.32043 44.0461 8.29826Z" fill="#C6001A"/>
<path d="M60.0901 59.4437C59.0038 59.4437 57.9818 59.4437 56.9598 59.4437C52.562 59.4437 48.1642 59.4466 43.7667 59.4342C43.583 59.4337 43.3563 59.335 43.2232 59.2062C42.3612 58.3727 41.5199 57.5178 40.6712 56.6706C40.5726 56.5721 40.4699 56.4777 40.2845 56.3004C40.1415 56.4797 40.0245 56.6566 39.8784 56.8045C39.0681 57.6236 38.254 58.4391 37.4315 59.2458C37.3328 59.3426 37.1753 59.4347 37.0447 59.4353C34.4348 59.4464 31.8246 59.4436 29.1292 59.4436C29.2693 59.2917 29.3622 59.1833 29.4632 59.0833C30.3471 58.2077 31.2651 57.3637 32.1028 56.446C32.489 56.023 32.7819 55.4836 33.0063 54.9505C33.4652 53.8605 33.2908 52.8251 32.5086 51.9267C31.0345 50.2334 29.5464 48.5523 28.0643 46.8658C27.9821 46.7722 27.903 46.6759 27.8188 46.5767C28.5799 46.5767 29.3162 46.5629 30.0517 46.5795C31.6385 46.6153 33.2247 46.678 34.8116 46.7028C35.1452 46.708 35.3357 46.794 35.4246 47.1227C35.4789 47.3235 35.5849 47.5105 35.668 47.7045C35.4701 47.939 35.3065 47.911 35.1778 47.662C34.9986 47.3157 34.7221 47.2329 34.3409 47.2333C32.8715 47.2351 31.402 47.1985 29.9325 47.1768C29.773 47.1744 29.6135 47.1765 29.3591 47.1765C29.5114 47.359 29.6025 47.4729 29.6988 47.5823C30.7711 48.7994 31.845 50.015 32.9169 51.2325C34.2601 52.7582 34.4218 54.3899 33.2983 56.1055C32.8208 56.8345 32.181 57.4575 31.6116 58.1256C31.5315 58.2195 31.4312 58.2962 31.2795 58.4375C31.8727 58.473 32.3258 58.5294 32.74 58.044C33.5399 57.1062 34.4176 56.2341 35.2717 55.343C36.4948 54.0668 36.7422 52.5883 36.2083 50.9408C36.1903 50.885 36.1737 50.8289 36.1437 50.7321C36.3407 50.6239 36.5395 50.5148 36.7699 50.3884C37.1212 51.0836 37.2406 51.791 37.2467 52.5237C37.257 53.7445 36.8399 54.7968 35.9997 55.6846C35.248 56.4787 34.5032 57.2789 33.756 58.077C33.6637 58.1756 33.5755 58.2782 33.4155 58.457C33.9804 58.457 34.4447 58.4705 34.9074 58.4466C35.0116 58.4412 35.1238 58.3195 35.2075 58.2285C36.1616 57.1896 37.1118 56.1469 38.0606 55.1032C38.1625 54.9909 38.2491 54.8648 38.3568 54.7271C38.588 54.9321 38.7608 55.085 38.9567 55.2586C38.4829 55.8023 38.0282 56.3239 37.5743 56.8459C37.1303 57.3563 36.6872 57.8676 36.2023 58.4262C36.6908 58.4817 37.0525 58.5036 37.4082 58.138C38.3496 57.1707 39.3419 56.2524 40.3417 55.2881C40.985 55.9052 41.6182 56.5126 42.2512 57.1201C42.5904 57.4458 42.9604 57.7459 43.2595 58.1052C43.5923 58.505 43.9911 58.4935 44.5191 58.4294C43.5714 57.3467 42.6649 56.3115 41.7402 55.2551C41.9249 55.0927 42.0983 54.9403 42.3087 54.7552C42.549 55.0157 42.7778 55.2624 43.0048 55.5105C43.838 56.421 44.6652 57.3375 45.5103 58.2367C45.622 58.3555 45.8211 58.438 45.9866 58.4509C46.38 58.4819 46.7777 58.4609 47.2666 58.4609C47.1326 58.3014 47.0587 58.2048 46.9759 58.1161C46.2057 57.2914 45.422 56.479 44.6656 55.6419C43.2962 54.1263 43.1533 52.4001 43.8369 50.5455C43.8523 50.5034 43.8838 50.4674 43.9245 50.4018C44.1272 50.5034 44.3232 50.602 44.5215 50.7015C44.4301 51.137 44.3114 51.5534 44.2593 51.9779C44.1059 53.2299 44.4678 54.3254 45.3335 55.2461C46.1871 56.1538 47.0823 57.0255 47.89 57.9721C48.308 58.4621 48.7585 58.5267 49.3929 58.3496C49.2856 58.2711 49.1687 58.2028 49.0719 58.1127C48.2488 57.3472 47.5145 56.5119 47.052 55.471C46.3963 53.9949 46.5644 52.6307 47.6333 51.4044C48.761 50.1108 49.9001 48.8273 51.0339 47.5391C51.1156 47.4461 51.1947 47.351 51.3267 47.1962C50.6505 47.1962 50.058 47.191 49.4655 47.1975C48.4429 47.2084 47.42 47.2463 46.3978 47.2318C45.9932 47.2261 45.6934 47.3094 45.5029 47.6845C45.3917 47.9032 45.2371 47.9274 45.037 47.7062C45.153 47.4321 45.2646 47.1374 45.4052 46.8574C45.4412 46.7861 45.5683 46.7228 45.6554 46.7203C48.0059 46.6517 50.3565 46.5915 52.7072 46.5312C52.7487 46.5301 52.7908 46.5457 52.8878 46.5637C52.5222 46.9845 52.1882 47.3723 51.8504 47.757C50.6956 49.0735 49.5653 50.4128 48.3758 51.6972C47.3029 52.8557 47.1741 54.2054 47.9649 55.5833C48.6188 56.7228 49.5873 57.5767 50.6264 58.4177C51.2591 57.1881 51.477 55.9208 51.3618 54.5745C51.2465 53.2238 50.7505 52.0606 49.7521 51.102C50.428 50.9934 64.3169 51.0778 65.1672 51.195C66.0059 48.7855 66.3969 46.2963 66.3635 43.742C66.3188 40.319 65.5409 37.0712 63.9688 33.9565C63.6869 34.2722 63.4382 34.5467 63.194 34.825C62.4343 35.6909 61.679 36.5606 60.9134 37.4212C60.8284 37.5167 60.6904 37.6203 60.5741 37.6238C59.9177 37.6432 59.2603 37.6331 58.6032 37.6331C58.5772 37.6043 58.5514 37.5755 58.5254 37.5466C58.5997 37.4616 58.6586 37.3313 58.7512 37.2999C59.0619 37.1946 59.3803 37.0946 59.7037 37.048C60.2374 36.9712 60.6186 36.7012 60.9514 36.2869C61.4369 35.6827 61.9674 35.1147 62.4766 34.5296C62.5493 34.446 62.6105 34.3521 62.7242 34.1998C61.9423 34.2718 61.2437 34.3342 60.5455 34.401C57.773 34.6662 55.0003 34.9307 52.2283 35.2C51.1941 35.3005 50.252 35.6831 49.4548 36.3252C48.4873 37.1045 47.5717 37.951 46.6592 38.7958C45.7533 39.6345 44.8876 40.5233 43.79 41.1166C41.1962 42.5187 38.6393 42.3935 36.2545 40.6927C35.1254 39.8874 34.1594 38.8504 33.1359 37.9007C32.0728 36.9143 31.0155 35.9102 29.5938 35.4708C28.9617 35.2754 28.2869 35.1918 27.6247 35.1251C24.4909 34.81 21.355 34.5183 18.2197 34.2191C18.1657 34.2139 18.1106 34.2184 17.9892 34.2184C18.0817 34.3468 18.1333 34.4317 18.1977 34.5055C18.8153 35.2147 19.4281 35.9281 20.0601 36.6243C20.185 36.7618 20.3738 36.8677 20.5532 36.9237C21.0015 37.0634 21.4643 37.1559 21.9141 37.2912C22.0143 37.3213 22.085 37.449 22.1694 37.5318C22.1466 37.5651 22.1239 37.5983 22.1011 37.6316C21.4328 37.6316 20.7645 37.6358 20.0963 37.6261C20.0168 37.6249 19.9174 37.5676 19.8622 37.5052C18.6406 36.1237 17.4239 34.7378 16.1558 33.2953C16.327 33.2953 16.4351 33.2864 16.5414 33.2966C18.3783 33.4728 20.2161 33.6423 22.051 33.8372C22.409 33.8752 22.5857 33.7818 22.7482 33.4497C24.1407 30.6042 26.07 28.168 28.4442 26.0785C28.4881 26.0399 28.5386 26.009 28.5892 25.9722C28.841 26.3398 29.091 26.7047 29.3654 27.1055C27.1688 29.0458 25.3659 31.3047 24.019 33.9992C24.4621 34.0459 24.8641 34.0917 25.2666 34.1303C26.378 34.2371 27.4905 34.3322 28.6008 34.448C30.1068 34.605 31.3826 35.2835 32.495 36.27C33.3116 36.9943 34.0811 37.7719 34.8693 38.5282C35.805 39.4258 36.7529 40.329 37.9904 40.7824C40.31 41.6326 42.4951 41.3313 44.4128 39.7433C45.4782 38.8613 46.449 37.865 47.4579 36.9154C48.4934 35.9408 49.5896 35.036 50.998 34.689C51.8814 34.4714 52.8026 34.3894 53.7122 34.2989C56.9166 33.9797 60.1231 33.6835 63.3289 33.3771C63.4171 33.3686 63.5041 33.3434 63.5981 33.3247C59.7527 25.7709 49.1526 18.74 36.6956 22.8541C36.5055 22.459 36.3141 22.0613 36.094 21.6036C36.6496 21.4297 37.1962 21.2318 37.7566 21.0874C44.2391 19.4169 50.3972 20.2128 56.1677 23.6252C59.9551 25.865 62.8725 28.9707 64.9547 32.8518C66.6315 35.9773 67.545 39.3122 67.7218 42.856C67.8676 45.7786 67.4704 48.6238 66.5646 51.4002C66.4801 51.6589 66.5274 51.7917 66.7383 51.955C68.0577 52.9762 68.6029 54.8034 68.1142 56.5014C67.6457 58.1308 66.3757 59.2037 64.6544 59.3739C63.9899 59.4395 63.3155 59.4595 62.6484 59.4317C62.1918 59.4125 61.8932 59.5671 61.5967 59.901C59.6308 62.114 57.3104 63.8747 54.6713 65.2091C51.6181 66.7531 48.3787 67.5998 44.9567 67.7283C40.1489 67.9087 35.6874 66.7502 31.5902 64.2264C27.4827 61.6963 24.4282 58.2178 22.3991 53.8512C21.1329 51.1262 20.4424 48.2489 20.2862 45.2426C20.1776 43.1513 20.334 41.0842 20.7899 39.0425C20.8623 38.7182 20.7675 38.5016 20.5051 38.2548C20.6514 38.2437 20.736 38.2303 20.8203 38.2318C24.3586 38.298 27.8967 38.3687 31.4349 38.4263C31.6893 38.4305 31.8149 38.512 31.8983 38.7434C32.0174 39.0737 32.1664 39.3931 32.3057 39.7243C32.1068 39.9291 31.9213 39.9943 31.7783 39.7014C31.5099 39.1522 31.0728 39.051 30.4897 39.045C27.8213 39.0174 25.1535 38.9361 22.4854 38.8745C22.35 38.8715 22.2145 38.8742 21.9725 38.8742C22.3913 39.3483 22.6978 39.7901 23.0994 40.1136C23.3317 40.3007 23.7174 40.2979 24.0342 40.3794C24.3257 40.4543 24.3258 40.4537 24.2534 40.8209C23.794 40.8209 23.3257 40.8341 22.8592 40.8106C22.7563 40.8053 22.6491 40.6803 22.5629 40.5919C22.393 40.4178 22.2365 40.2308 22.058 40.0306C20.4488 47.2607 23.2346 58.0216 33.1918 63.5558C43.1748 69.1043 54.3098 65.8024 60.0901 59.4437ZM51.5455 58.6682C51.7053 58.6682 51.8416 58.6682 51.9777 58.6682C54.7042 58.6684 57.4308 58.6725 60.1572 58.6669C61.6258 58.6642 63.0948 58.6628 64.5627 58.6246C65.2042 58.608 65.8229 58.4272 66.319 57.9876C67.3212 57.0997 67.5459 55.9388 67.3908 54.6812C67.2763 53.7543 66.9124 52.9363 66.1029 52.3894C65.4542 51.9508 64.7146 51.8313 63.9521 51.8306C59.9444 51.827 55.9367 51.8287 51.9293 51.8295C51.8079 51.8295 51.6865 51.8418 51.5574 51.8489C52.494 54.1351 52.5066 56.3775 51.5455 58.6682Z" fill="#C6001A"/>
<path d="M29.7485 24.0858C29.7451 22.5706 31.019 21.3128 32.5465 21.3234C34.066 21.3341 35.3111 22.5997 35.3066 24.1294C35.3023 25.6423 34.0331 26.8951 32.5041 26.8954C30.9939 26.8957 29.7518 25.6293 29.7485 24.0858Z" fill="#C6001A"/>
<path d="M13.8956 39.7786C14.0327 40.3392 14.1432 40.8494 14.29 41.3492C14.3257 41.4706 14.4683 41.5752 14.5845 41.6539C14.6772 41.7167 14.8344 41.6971 14.9099 41.7695C15.0577 41.9112 15.1684 42.0913 15.2944 42.2557C15.14 42.3698 14.9869 42.4858 14.8302 42.5967C14.7957 42.621 14.7482 42.6269 14.7113 42.6395C14.7388 43.2546 15.5194 43.7263 16.0065 43.8199C16.0983 43.8374 16.1813 43.9006 16.2684 43.9427C16.2208 44.0267 16.1909 44.1308 16.1225 44.1914C15.7355 44.5345 14.6436 44.6342 14.2163 44.3416C14.0815 44.2493 13.9193 44.024 13.9493 43.9049C13.9946 43.7254 14.1977 43.5855 14.33 43.4332C14.1602 43.1507 13.9906 42.7559 13.719 42.4522C13.4993 42.2062 13.1642 42.0572 12.8666 41.8891C12.6763 41.7818 12.4612 41.7179 12.2292 41.6233C12.1916 41.69 12.1591 41.7944 12.0899 41.8595C11.989 41.9546 11.8463 42.1001 11.7495 42.0811C11.6232 42.0562 11.4541 41.9073 11.4265 41.7842C11.3272 41.3395 11.2084 40.8805 11.2266 40.4321C11.2721 39.3102 11.3745 38.1898 11.4905 37.0725C11.5097 36.888 11.6918 36.7005 11.8411 36.5592C11.8994 36.5041 12.1221 36.5299 12.1834 36.5974C12.2438 36.6638 12.2252 36.8399 12.1886 36.9504C11.9854 37.5639 12.024 38.1871 12.0495 38.7865C12.2387 38.6047 12.3951 38.3465 12.6117 38.2776C12.8184 38.2117 13.0879 38.3428 13.353 38.3918C13.3851 38.1128 13.4093 37.7906 13.4622 37.4731C13.5196 37.1286 13.7142 37.0478 14.0152 37.2342C14.1438 37.3138 14.2558 37.4206 14.3753 37.515C15.1358 38.1167 15.9124 38.6992 16.6489 39.3291C16.9614 39.5963 17.2385 39.934 17.4439 40.2904C17.6979 40.7313 17.5318 41.0554 17.0715 41.277C16.9845 41.3188 16.8884 41.4672 16.896 41.558C16.9242 41.8945 17.0276 42.2265 17.0371 42.562C17.0443 42.8159 16.9651 43.0768 16.8911 43.3246C16.8774 43.3706 16.6693 43.4197 16.6133 43.3798C16.4705 43.2779 16.3397 43.1407 16.2478 42.9908C16.1601 42.8478 16.1636 42.6438 16.0651 42.5133C15.3955 41.626 14.7098 40.7509 14.028 39.873C14.0083 39.8478 13.9741 39.8338 13.8956 39.7786ZM16.8528 40.748C17.0485 40.4683 17.0234 40.3266 16.6765 40.0414C16.1908 39.6418 15.6918 39.2579 15.216 38.8469C14.782 38.4721 14.3775 38.063 13.9438 37.6877C13.8767 37.6296 13.6493 37.6274 13.6216 37.6742C13.4317 37.9929 13.6248 38.8007 13.8942 39.0733C14.3285 39.5129 14.7449 39.9705 15.1616 40.427C15.4812 40.777 15.7898 41.1372 16.1034 41.4928C16.1668 41.3535 16.1872 41.2227 16.1428 41.1196C16.0075 40.8051 16.2654 40.6699 16.4286 40.519C16.4641 40.4862 16.6858 40.655 16.8528 40.748ZM13.3396 41.3857C13.3396 40.6893 13.3386 40.0963 13.34 39.5035C13.3407 39.1449 13.1452 38.9265 12.7197 38.8682C12.7512 39.4097 12.7822 39.9416 12.8132 40.4736C12.7775 40.4819 12.7418 40.4902 12.7061 40.4985C12.5546 40.2285 12.4032 39.9587 12.2081 39.611C12.2081 40.0796 12.2023 40.4495 12.2135 40.8188C12.2154 40.8837 12.2737 40.9815 12.3303 41.0049C12.6579 41.1399 12.9928 41.2571 13.3396 41.3857Z" fill="#C6001A"/>
<path d="M61.1549 21.7538C61.0737 21.3424 60.908 21.0683 60.6174 20.8581C60.5262 20.7919 60.4023 20.6301 60.4281 20.5728C60.4775 20.4636 60.6156 20.3844 60.7315 20.3178C60.8879 20.228 61.0577 20.1619 61.2216 20.0856C61.2184 20.0417 61.2149 19.9977 61.2116 19.9538C60.6965 19.8972 60.1826 19.817 59.6661 19.7934C59.3847 19.7804 59.0944 19.845 58.8175 19.9129C58.7094 19.9392 58.6196 20.0629 58.5344 20.1544C58.2563 20.4529 58.0069 20.7836 57.6981 21.0449C57.584 21.1415 57.336 21.08 57.1491 21.0906C57.1432 20.9554 57.1064 20.8127 57.1375 20.6866C57.2045 20.416 57.3064 20.154 57.4076 19.8478C56.9006 19.7648 56.7105 19.3712 56.5088 18.9335C56.6003 18.9229 56.6746 18.8898 56.7224 18.9125C57.3317 19.2022 57.9891 19.094 58.6257 19.1392C58.9491 19.1622 59.2041 18.9989 59.3311 18.6263C59.0272 18.4843 58.515 18.498 58.7419 17.8787C59.0593 17.9165 59.4077 17.9263 59.739 18.0064C60.0742 18.0874 60.2955 17.9444 60.5351 17.7575C60.8779 17.4901 61.2391 17.2462 61.6431 16.9559C61.6832 17.4552 61.7332 17.8576 61.7343 18.2601C61.7347 18.351 61.5801 18.4944 61.472 18.5245C61.0469 18.6429 60.6089 18.7151 60.1815 18.8271C59.9889 18.8775 59.8102 18.981 59.6254 19.0605C59.637 19.1169 59.6486 19.1732 59.6602 19.2297C60.2123 19.2731 60.764 19.3194 61.3164 19.3588C61.6841 19.3849 62.0712 19.4775 62.3671 19.1526C62.5401 18.9627 62.6888 18.7506 62.8643 18.5633C63.0082 18.4097 63.139 18.1647 63.4089 18.3186C63.5791 18.4157 63.5824 18.8255 63.4309 19.0304C63.3352 19.1598 63.2221 19.2763 63.0401 19.488C63.352 19.4315 63.5764 19.3908 63.8004 19.3502C63.8744 19.7758 63.8158 19.8334 63.3655 19.9523C62.7517 20.1145 62.0828 20.0554 61.5175 20.4104C61.4802 20.4337 61.4401 20.4523 61.3313 20.5105C61.6852 20.6206 61.9769 20.7126 62.2699 20.8016C62.3816 20.8355 62.5011 20.8496 62.6074 20.8952C63.0229 21.0738 63.0583 21.3036 62.709 21.5883C62.4576 21.7932 62.0708 21.9326 61.9683 22.1903C61.8721 22.4323 62.0624 22.7931 62.1402 23.0982C62.2006 23.3357 62.2659 23.5743 62.3567 23.8012C62.5366 24.2507 62.4161 24.7367 62.0261 25.0199C61.8641 25.1375 61.7635 25.0751 61.7375 24.8883C61.6341 24.1492 61.5309 23.41 61.4356 22.6697C61.3997 22.3926 61.3118 22.2207 60.9769 22.2488C60.677 22.274 60.3615 22.2815 60.0709 22.2166C59.294 22.0429 59.1323 21.4123 59.6415 20.8574C59.8245 21.1691 59.9513 21.5828 60.231 21.7921C60.417 21.9309 60.8214 21.7779 61.1549 21.7538ZM61.5333 21.0761C61.5602 21.321 61.582 21.5688 61.8734 21.5635C61.9752 21.5616 62.1752 21.3547 62.1568 21.2938C62.0601 20.974 61.7811 21.0801 61.5333 21.0761ZM57.4871 19.82C57.5701 19.9942 57.6163 20.0914 57.6259 20.1117C57.7711 20.028 57.9077 19.9492 58.0443 19.8705C58.0278 19.8446 58.0114 19.8189 57.9949 19.793C57.851 19.8007 57.707 19.8083 57.4871 19.82Z" fill="#C6001A"/>
<path d="M20.2188 27.1998C20.7274 27.3786 21.2101 27.5444 21.6899 27.7181C22.0336 27.8426 22.099 28.0843 21.8039 28.2674C21.4618 28.4798 21.3959 28.7486 21.3995 29.1184C21.4048 29.671 20.8978 30.2235 20.3124 30.2956C20.6935 29.9005 21.1278 29.5804 21.0477 29.0628C20.7459 29.1107 20.4405 29.2474 20.1991 29.1739C19.9313 29.0924 19.7217 28.8191 19.471 28.6165C19.2358 29.0795 18.9386 29.6325 18.6732 30.2005C18.5397 30.4861 18.4812 30.8062 18.3546 31.0959C18.298 31.2251 18.157 31.3174 18.0481 31.4329C17.7338 31.2666 17.8766 31.0371 17.9489 30.8505C18.1513 30.3272 18.3686 29.8092 18.5965 29.2965C18.7766 28.8915 18.9932 28.5026 19.1684 28.0957C19.2269 27.9599 19.258 27.7741 19.2141 27.6396C19.0947 27.2729 18.9429 26.9145 18.7733 26.5678C18.7156 26.4502 18.5667 26.3771 18.4594 26.2836C18.4203 26.4019 18.3495 26.5198 18.3476 26.6387C18.3391 27.1753 18.365 27.7127 18.3498 28.2488C18.3352 28.7598 18.1511 28.9456 17.6967 28.9404C17.6017 28.9393 17.4584 28.8838 17.4208 28.8106C17.0176 28.0259 16.643 27.2291 16.6574 26.3159C16.6579 26.2847 16.6814 26.2542 16.7359 26.1225C17.0257 26.5681 17.2813 26.961 17.558 27.3865C17.6211 26.884 17.6878 26.4303 17.7263 25.9743C17.7329 25.8953 17.6324 25.7939 17.5608 25.7239C17.0845 25.2588 16.8681 24.6792 16.7995 24.0323C16.7728 23.7798 16.8239 23.5591 17.0798 23.4436C17.3446 23.3241 17.5435 23.4653 17.6962 23.6499C17.8804 23.8726 18.0309 24.1232 18.0672 24.2336C18.3115 24.0595 18.5552 23.8846 18.8004 23.7116C19.2272 23.4105 19.7101 23.5483 19.8076 24.0577C19.9391 24.7452 19.9326 25.4337 19.4512 26.0305C19.0938 26.4734 19.335 26.9071 19.5012 27.4024C20.0828 26.4101 20.4582 25.3225 21.5601 24.8387C21.0422 25.5789 20.3853 26.2291 20.2188 27.1998ZM19.0441 25.7441C19.0932 25.7441 19.1423 25.7441 19.1914 25.7441C19.2215 25.2474 19.258 24.751 19.2749 24.2539C19.2776 24.1735 19.2093 24.0701 19.1426 24.0144C19.0853 23.9665 18.9694 23.9351 18.9044 23.9605C18.7147 24.0348 18.4724 24.8244 18.5792 25.0074C18.7256 25.258 18.8884 25.4989 19.0441 25.7441ZM20.1409 27.4482C19.7849 27.9959 19.7842 28.1864 20.0996 28.5857C20.1887 28.6985 20.2798 28.8913 20.4497 28.7123C20.6021 28.5516 20.9992 28.479 20.7645 28.134C20.5988 27.8905 20.3668 27.6922 20.1409 27.4482ZM17.7766 25.4901C17.9941 25.0098 17.713 24.2593 17.1943 23.8895C17.2269 24.4911 17.4115 24.9922 17.7766 25.4901Z" fill="#C6001A"/>
<path d="M25.7128 21.0708C25.491 21.0708 25.314 21.0708 25.1371 21.0708C25.1812 20.8629 25.2273 20.6555 25.2689 20.447C25.3057 20.2629 25.3508 20.0786 25.3625 19.8926C25.3655 19.8436 25.2599 19.7493 25.2012 19.7467C25.1515 19.7446 25.0735 19.8363 25.0498 19.9017C24.9862 20.0778 24.9357 20.2599 24.8965 20.4431C24.79 20.9428 24.4293 21.1536 23.9764 21.2379C23.8591 21.2598 23.7237 21.1854 23.5966 21.1552C23.6439 21.0425 23.6788 20.9225 23.7407 20.8187C24.0147 20.3594 24.2973 19.9054 24.5753 19.4483C24.7541 19.1542 24.728 18.8767 24.4876 18.6297C24.248 18.3835 24.211 18.1597 24.4596 17.8761C24.5761 17.743 24.5875 17.5179 24.6848 17.2164C24.2453 17.317 23.9161 17.3925 23.4713 17.4944C23.5872 17.284 23.6411 17.1384 23.7341 17.0252C24.1959 16.4636 24.6533 15.8968 25.1447 15.3618C25.306 15.1863 25.5519 15.0424 25.7831 14.9893C26.0361 14.9312 26.1452 15.137 26.008 15.3672C25.6432 15.98 25.2582 16.581 24.8993 17.1972C24.7517 17.4506 24.4947 17.7058 24.8413 18.0274C24.9274 18.1072 24.8821 18.3284 24.8973 18.4846C24.9277 18.4968 24.9582 18.5089 24.9887 18.5211C25.0954 18.3275 25.1938 18.1287 25.3107 17.9416C25.4778 17.6741 25.6439 17.4039 25.8379 17.1566C25.9801 16.9754 26.1924 16.9017 26.4002 17.0533C26.6033 17.2016 26.589 17.3983 26.4847 17.6175C26.3387 17.9242 26.2485 18.2602 26.0812 18.5534C25.9422 18.797 25.7262 18.9967 25.5278 19.236C25.5824 19.3115 25.655 19.4118 25.6663 19.4276C25.9175 19.3344 26.1169 19.2103 26.3244 19.1948C26.6439 19.1712 26.6907 19.2737 26.5802 19.5731C26.3901 20.0882 26.2021 20.604 26.0191 21.1216C25.9934 21.1943 26.0003 21.2785 26.0549 21.3899C26.2792 21.0473 26.5021 20.7038 26.7287 20.3626C26.8453 20.1872 26.9345 19.9616 27.0987 19.8592C27.251 19.7643 27.4936 19.7679 27.6813 19.8048C27.7382 19.8158 27.7931 20.0921 27.7655 20.2304C27.6797 20.6614 27.5602 21.0861 27.4421 21.5102C27.3424 21.868 27.5977 22.1786 27.9399 22.0586C28.6308 21.8166 29.1782 21.3524 29.641 20.7995C29.7203 20.7048 29.7067 20.4635 29.6453 20.3324C29.4489 19.9127 29.2123 19.5115 28.9858 19.1062C28.9224 18.9929 28.8401 18.8901 28.8082 18.749C28.956 19.067 29.4686 19.0343 29.5239 19.4617C29.5907 19.5097 29.6954 19.558 29.7624 19.6381C29.9723 19.8888 30.1663 20.1527 30.37 20.4088C30.5028 20.5759 30.5032 20.7259 30.3321 20.8664C29.5899 21.4758 28.8659 22.1045 27.9553 22.4742C27.6209 22.6101 27.4106 22.5436 27.2405 22.2692C27.1059 22.0521 26.9783 21.9011 26.6779 21.9916C26.5995 22.0153 26.4618 21.842 26.333 21.7454C26.3198 21.8714 26.3303 22.0567 26.2739 22.2188C26.2286 22.3488 26.1024 22.4507 26.0122 22.5649C25.9047 22.4476 25.7221 22.3401 25.7051 22.2109C25.6677 21.9242 25.7153 21.6268 25.7241 21.3336C25.727 21.241 25.7165 21.1481 25.7128 21.0708ZM26.5751 21.2618C27.0359 21.1563 27.0819 21.0547 27.0247 20.3481C26.8817 20.6387 26.7352 20.9364 26.5751 21.2618ZM25.7793 18.1336C25.7258 18.0983 25.6722 18.063 25.6186 18.0277C25.5102 18.244 25.4019 18.4602 25.2933 18.6764C25.3409 18.7019 25.3884 18.7274 25.4359 18.7528C25.5504 18.5464 25.6648 18.34 25.7793 18.1336Z" fill="#C6001A"/>
<path d="M44.9362 72.6571C45.2951 72.6571 45.5624 72.6571 45.8539 72.6571C45.8539 74.4325 45.8539 76.1897 45.8539 77.9902C45.5495 77.9902 45.2562 78.0165 44.9721 77.9773C44.8571 77.9614 44.7243 77.8216 44.6636 77.705C44.1429 76.7047 43.6375 75.6967 43.126 74.6917C43.0711 74.5836 43.0072 74.4803 42.8737 74.3963C42.8737 75.5751 42.8737 76.7539 42.8737 77.9614C42.5627 77.9614 42.2876 77.9614 41.9764 77.9614C41.9764 76.2124 41.9764 74.4577 41.9764 72.6458C42.278 72.6458 42.5917 72.626 42.9001 72.6581C42.9912 72.6676 43.0929 72.8105 43.1461 72.9144C43.6611 73.9174 44.1664 74.9256 44.6752 75.9315C44.7317 76.0432 44.7929 76.1522 44.9361 76.2503C44.9362 75.055 44.9362 73.86 44.9362 72.6571Z" fill="#C6001A"/>
<path d="M30.8531 75.3825C30.7753 75.3825 30.7624 75.386 30.7527 75.382C29.8654 75.0111 29.8649 75.0111 29.854 74.0465C29.8437 73.1302 29.8344 72.2138 29.8252 71.2974C29.8238 71.1615 29.825 71.0258 29.825 70.8898C29.7934 70.8819 29.7616 70.8739 29.7299 70.8658C29.2034 71.9287 28.6767 72.9916 28.1309 74.0934C27.8491 73.9557 27.5924 73.8304 27.3072 73.691C28.0991 72.0822 28.8749 70.5056 29.6629 68.9048C29.9444 69.0417 30.222 69.1437 30.4574 69.3068C30.562 69.3793 30.6289 69.5743 30.6315 69.715C30.6526 70.831 30.6543 71.9471 30.6615 73.0632C30.6624 73.1991 30.6617 73.335 30.6617 73.471C30.6925 73.4795 30.7232 73.4879 30.7538 73.4964C31.2852 72.4214 31.8166 71.3463 32.3653 70.2365C32.6413 70.3713 32.8989 70.4972 33.1911 70.6401C32.4035 72.2375 31.6268 73.8131 30.8531 75.3825Z" fill="#C6001A"/>
<path d="M20.9178 60.877C21.3914 61.5723 22.0316 62.1157 22.2921 62.9258C22.5292 63.6634 22.4217 64.3527 21.9638 64.9606C21.3764 65.7401 20.6249 66.2691 19.601 66.2904C18.8841 66.3053 18.3026 65.9828 17.8201 65.4969C17.4257 65.0997 17.0862 64.6481 16.6882 64.1806C18.11 63.0701 19.4998 61.9847 20.9178 60.877ZM17.9183 64.4239C18.3712 65.0232 18.8372 65.5163 19.6129 65.3642C20.4671 65.1968 21.1492 64.7415 21.4426 63.8886C21.6815 63.1943 21.3195 62.6497 20.8585 62.1298C19.8725 62.8992 18.9118 63.6487 17.9183 64.4239Z" fill="#C6001A"/>
<path d="M61.0385 70.69C61.4578 71.2951 61.882 71.9075 62.3236 72.5453C62.054 72.7319 61.8164 72.8964 61.5448 73.0845C60.5271 71.6236 59.5242 70.1839 58.477 68.6806C59.1174 68.2755 59.7147 67.8398 60.364 67.5051C60.8753 67.2415 61.4038 67.3734 61.8184 67.7887C62.2211 68.1921 62.3901 68.6697 62.1748 69.2334C62.1466 69.3077 62.1138 69.3803 62.1034 69.4053C62.9071 69.9352 63.6858 70.4486 64.5275 71.0033C64.2484 71.1993 64.0236 71.3777 63.7767 71.517C63.7086 71.5555 63.5575 71.5045 63.4744 71.4493C63.0148 71.1444 62.5679 70.8207 62.1105 70.5129C61.7021 70.2382 61.428 70.2826 61.0385 70.69ZM60.5593 70.0052C60.958 69.7529 61.3635 69.5524 61.368 69.0347C61.3708 68.731 61.2222 68.4637 60.9386 68.3624C60.4432 68.1856 60.1033 68.5242 59.72 68.7947C60.0063 69.2073 60.2772 69.5983 60.5593 70.0052Z" fill="#C6001A"/>
<path d="M36.9783 71.8334C37.2801 71.8931 37.5626 71.9492 37.8849 72.0131C37.7936 72.5034 37.7111 72.9624 37.622 73.4202C37.5009 74.0428 37.3672 74.6634 37.2549 75.2878C37.2158 75.5052 37.1995 75.7332 37.2167 75.953C37.2489 76.3637 37.4892 76.6195 37.8844 76.715C38.2751 76.8095 38.6525 76.704 38.8144 76.3369C39.0009 75.9142 39.1077 75.4509 39.2059 74.996C39.3917 74.1362 39.5467 73.2695 39.7214 72.3699C40.0385 72.4331 40.3309 72.4914 40.656 72.5562C40.462 73.5521 40.274 74.5183 40.0855 75.4843C40.0495 75.6687 40.0124 75.8529 39.974 76.0368C39.7397 77.1578 38.8705 77.7229 37.7522 77.4819C36.6083 77.2353 36.0686 76.4248 36.2885 75.2744C36.4825 74.2589 36.682 73.2443 36.8811 72.2294C36.9057 72.1049 36.9415 71.9825 36.9783 71.8334Z" fill="#C6001A"/>
<path d="M17.2327 54.0689C17.3837 54.4022 17.5306 54.6814 17.632 54.9761C17.664 55.0695 17.5988 55.2197 17.5367 55.3178C17.2306 55.8 16.9106 56.2734 16.5555 56.8105C17.0474 56.8704 17.473 56.9696 17.8965 56.9618C18.4598 56.9514 18.76 57.2045 18.8955 57.7202C18.9189 57.8091 18.9656 57.8919 19.0223 58.0269C18.1624 57.8984 17.3398 57.7935 16.525 57.6452C16.1773 57.5818 15.9694 57.6482 15.7775 57.9635C15.3625 58.645 14.9026 59.2991 14.46 59.9638C14.3905 60.0681 14.3159 60.1691 14.2109 60.3184C14.0618 59.9927 13.9204 59.7255 13.821 59.4435C13.7877 59.3492 13.8315 59.1977 13.891 59.1052C14.2579 58.5349 14.6393 57.974 15.0574 57.3478C14.3925 57.2701 13.7952 57.1679 13.1945 57.1416C12.8248 57.1255 12.6438 56.9685 12.5348 56.6478C12.4756 56.4736 12.3888 56.3088 12.2905 56.0849C13.2431 56.2175 14.1386 56.3194 15.0246 56.4751C15.4406 56.5484 15.6861 56.4586 15.908 56.0836C16.3072 55.409 16.7668 54.7699 17.2327 54.0689Z" fill="#C6001A"/>
<path d="M25.9984 72.899C25.9444 72.8874 25.9311 72.8878 25.922 72.8821C25.1647 72.4068 25.171 72.4087 25.4325 71.5466C25.6311 70.8918 25.6773 71.0836 25.1437 70.6781C24.8632 70.4652 24.5674 70.2717 24.2947 70.0496C24.1036 69.8941 23.9495 69.8546 23.7464 70.0342C23.5628 70.1964 23.3353 70.3079 23.1469 70.4654C22.9519 70.6287 22.7895 70.6462 22.597 70.464C22.4547 70.3295 22.2864 70.2223 22.099 70.0798C22.9735 69.498 23.8111 68.9388 24.6508 68.3828C25.2967 67.9551 25.95 67.5382 26.5898 67.1015C26.7772 66.9736 26.9174 66.9635 27.083 67.1209C27.1843 67.217 27.3271 67.2731 27.4164 67.377C27.4868 67.4589 27.5619 67.6033 27.5364 67.6913C27.0336 69.4262 26.516 71.1568 25.9984 72.899ZM26.4721 68.2683C26.4507 68.2485 26.4292 68.229 26.4076 68.2094C25.8576 68.588 25.3077 68.9664 24.7182 69.3723C25.1179 69.6655 25.4633 69.9187 25.8561 70.2068C26.0722 69.5268 26.2722 68.8974 26.4721 68.2683Z" fill="#C6001A"/>
<path d="M60.2147 38.2219C59.5996 38.9258 59.0046 39.5436 58.4873 40.2205C58.1198 40.7014 57.7074 40.9156 57.1141 40.8281C56.8968 40.7961 56.6706 40.8229 56.4412 40.8229C56.3654 40.5889 56.3511 40.4006 56.647 40.3849C57.3931 40.345 57.9001 39.9355 58.3056 39.351C58.4045 39.2085 58.5323 39.0861 58.6962 38.8975C58.5358 38.886 58.4405 38.8715 58.3452 38.8735C55.4539 38.9369 52.5625 39.0078 49.6709 39.0601C49.2394 39.0679 49.1504 39.4187 48.9646 39.662C48.7871 39.8946 48.6436 39.9882 48.3898 39.7284C48.5468 39.3553 48.6921 38.9601 48.8841 38.589C48.9317 38.4969 49.1295 38.4423 49.2596 38.4393C51.011 38.3982 52.7626 38.3708 54.514 38.3369C56.3823 38.3009 58.2506 38.2617 60.2147 38.2219Z" fill="#C6001A"/>
<path d="M56.9423 75.3719C56.1819 73.7438 55.443 72.1621 54.6828 70.5343C55.5426 70.1312 56.386 69.7356 57.2665 69.3226C57.3818 69.5663 57.4885 69.7922 57.606 70.0409C57.0278 70.3161 56.4801 70.5766 55.8882 70.8584C56.0823 71.272 56.2683 71.668 56.4676 72.0926C57.0262 71.8361 57.5544 71.5937 58.1109 71.3383C58.2264 71.5802 58.3305 71.7983 58.4494 72.0475C57.9042 72.3074 57.3786 72.5578 56.8106 72.8286C57.0279 73.297 57.2372 73.7482 57.464 74.2372C58.0795 73.9555 58.6703 73.6852 59.2874 73.4028C59.4062 73.653 59.5094 73.8703 59.6268 74.1176C58.7282 74.5373 57.8604 74.9429 56.9423 75.3719Z" fill="#C6001A"/>
<path d="M53.5845 71.0355C53.5247 72.0747 53.4688 73.0701 53.4099 74.0654C53.3628 74.8625 53.3019 75.6594 53.2684 76.4572C53.2556 76.7613 53.0217 76.7355 52.8499 76.7802C52.6668 76.8278 52.4629 76.9991 52.2853 76.7357C51.2999 75.2758 50.3083 73.82 49.32 72.3621C49.3013 72.3346 49.2971 72.2972 49.2862 72.2648C49.3089 72.2499 49.326 72.2332 49.3465 72.226C50.1999 71.929 50.2008 71.9286 50.6932 72.6825C51.1811 73.4295 51.6668 74.1782 52.1545 74.9255C52.2297 75.0408 52.3109 75.1522 52.4534 75.3578C52.4859 74.8041 52.5164 74.3558 52.5375 73.9072C52.5718 73.1797 52.6147 72.4521 52.6234 71.724C52.6272 71.4059 52.7072 71.2114 53.0499 71.1722C53.2108 71.1539 53.3668 71.093 53.5845 71.0355Z" fill="#C6001A"/>
<path d="M50.6926 15.3834C50.4275 15.5432 50.1633 15.7041 49.8971 15.8621C49.7869 15.9276 49.679 16.0131 49.5587 16.0407C49.4655 16.0621 49.3549 16.0074 49.2522 15.9865C49.3029 15.8965 49.3316 15.7724 49.4084 15.7224C49.7394 15.5068 50.0846 15.3128 50.3794 15.1379C50.3221 14.9332 50.29 14.7786 50.2333 14.6337C50.2046 14.5601 50.1432 14.4822 50.0752 14.444C49.6781 14.221 49.6564 14.1543 49.8271 13.7163C49.8662 13.6159 49.8411 13.4922 49.8723 13.387C49.9199 13.2268 49.9492 12.9944 50.0612 12.936C50.2228 12.8516 50.4853 12.8246 50.6435 12.9007C50.9022 13.0248 50.854 13.3296 50.5843 13.5203C50.4302 13.6292 50.2756 13.7377 50.1213 13.8463C50.1341 13.8824 50.1469 13.9186 50.1597 13.9547C50.3786 13.9547 50.6037 13.9221 50.8151 13.9617C51.2063 14.0351 51.1543 13.7431 51.2101 13.5332C51.3485 13.0141 51.4658 12.488 51.6366 11.9799C51.6778 11.8568 51.9013 11.7126 52.026 11.7252C52.1303 11.7357 52.2807 11.9578 52.2878 12.0927C52.297 12.2652 52.1784 12.443 52.123 12.6209C51.9575 13.1527 51.796 13.6857 51.6297 14.2285C52.2617 14.2222 52.5857 13.6861 52.5521 12.7638C52.8445 12.7505 53.034 12.944 53.0171 13.2464C52.983 13.8581 52.707 14.307 52.1435 14.5783C51.4592 14.9077 51.191 15.4498 51.3103 16.2036C51.3465 16.4325 51.3983 16.6563 51.1391 16.8286C51.0613 16.8802 51.0738 17.0822 51.0634 17.2167C51.0516 17.3674 51.0606 17.5197 51.0606 17.7256C51.0698 17.763 51.1176 17.8576 51.1103 17.9477C51.0757 18.371 51.0489 18.7974 50.969 19.2131C50.9422 19.3523 50.7893 19.5099 50.6537 19.5744C50.4891 19.6528 50.282 19.6519 50.0925 19.6563C50.0686 19.6568 50.0037 19.4738 50.0205 19.3882C50.2085 18.4261 50.4116 17.4672 50.6041 16.506C50.6739 16.1575 50.7262 15.8054 50.7863 15.455C50.7549 15.4312 50.7238 15.4074 50.6926 15.3834Z" fill="#C6001A"/>
<path d="M64.6736 65.0398C64.3381 65.2529 64.0093 65.4289 63.7204 65.6555C63.4706 65.8511 63.382 66.1374 63.5272 66.4466C63.6735 66.7578 63.9514 66.7965 64.2468 66.7404C64.6382 66.6659 65.0235 66.5577 65.4159 66.4884C66.1271 66.3629 66.7391 66.6436 67.0684 67.2247C67.4113 67.83 67.35 68.5021 66.833 69.04C66.5367 69.3479 66.1643 69.5833 65.8216 69.8456C65.6282 69.9939 65.4662 69.9639 65.3174 69.7586C65.2019 69.5989 65.0525 69.4637 64.8999 69.2981C65.1817 69.1855 65.4469 69.1004 65.6923 68.9763C66.0162 68.8125 66.2756 68.576 66.3295 68.188C66.3857 67.7843 66.0981 67.4284 65.6908 67.4301C65.4593 67.4311 65.2268 67.4882 64.9967 67.5305C64.7198 67.5814 64.4471 67.6584 64.1687 67.6976C63.4985 67.792 62.9973 67.5193 62.6699 66.9405C62.3916 66.4485 62.4834 65.7996 62.9341 65.3126C63.1938 65.0319 63.5219 64.8135 63.8258 64.5755C64.0195 64.424 64.1841 64.4707 64.3309 64.6656C64.436 64.8048 64.567 64.9249 64.6736 65.0398Z" fill="#C6001A"/>
<path d="M66.1892 26.5446C66.3427 26.615 66.4636 26.6526 66.5649 26.7197C67.0096 27.0144 67.4232 27.3711 67.8995 27.5966C68.1593 27.7195 68.5555 27.7161 68.8316 27.6125C69.7119 27.2824 70.5645 26.8787 71.4254 26.5044C71.6762 26.836 71.5495 27.2347 71.1398 27.4496C70.7874 27.6343 70.4361 27.8211 70.0898 28.0166C69.9844 28.0761 69.8969 28.1672 69.7608 28.2763C70.3558 28.5787 70.9124 28.5936 71.4997 28.4457C71.2928 28.7952 70.9375 28.8865 70.6176 29.0265C70.0141 29.2906 69.3957 29.0847 68.7839 29.0694C68.612 29.065 68.4409 28.9806 68.27 28.9825C68.0891 28.9845 67.9085 29.0436 67.7288 29.0825C67.6846 29.092 67.645 29.1367 67.6029 29.1374C66.8916 29.1465 66.1774 29.3875 65.472 29.1257C65.3775 29.0906 65.3201 28.9547 65.2458 28.8654C65.327 28.8015 65.4001 28.7005 65.4912 28.68C65.9457 28.5774 66.4072 28.5055 66.8619 28.4038C67.199 28.3284 67.2364 28.1889 66.9963 27.9292C66.8299 27.7493 66.6565 27.5721 66.4651 27.4206C66.194 27.2062 66.108 26.945 66.1892 26.5446Z" fill="#C6001A"/>
<path d="M68.8409 57.9883C68.9782 57.6668 69.0717 57.4001 69.2073 57.1567C69.2556 57.0699 69.4017 57.0031 69.5104 56.9906C70.0822 56.925 70.6563 56.8809 71.2293 56.8266C71.3531 56.815 71.476 56.7927 71.6624 56.7664C71.2555 56.2359 70.9083 55.7338 70.5077 55.2787C70.241 54.9759 70.1967 54.7072 70.4017 54.3719C70.4862 54.2339 70.5418 54.0782 70.6266 53.8959C71.2602 54.7397 71.8598 55.5649 72.4925 56.364C72.672 56.5908 72.9257 56.7852 73.1848 56.9177C73.7044 57.1838 74.251 57.3968 74.8083 57.6414C74.6797 57.9381 74.5642 58.2038 74.4332 58.5058C73.8181 58.2424 73.23 57.9817 72.6336 57.7417C72.479 57.6796 72.2948 57.6472 72.1299 57.6624C71.241 57.7443 70.354 57.8462 69.466 57.9392C69.2808 57.9587 69.0945 57.9688 68.8409 57.9883Z" fill="#C6001A"/>
<path d="M36.971 17.979C37.1981 17.7788 37.5236 17.6295 37.5661 17.4222C37.6344 17.0894 37.5153 16.7184 37.4716 16.33C37.0507 16.5689 36.7127 16.801 36.342 16.9538C36.1625 17.0277 35.902 17.0037 35.7136 16.9314C35.492 16.8463 35.6192 16.6546 35.7434 16.5776C36.1493 16.3255 36.5587 16.0705 36.9937 15.8766C37.2356 15.7689 37.3629 15.6536 37.3503 15.3925C37.3447 15.2754 37.3609 15.1561 37.345 15.0409C37.199 13.9814 37.7898 13.2739 38.486 12.6083C38.6102 12.4896 38.6848 12.319 38.7135 12.1392C38.4388 12.299 38.1574 12.4482 37.891 12.6206C37.4126 12.9304 36.9354 13.2432 36.4724 13.5754C36.1153 13.8317 35.7446 13.9502 35.323 13.7862C35.2388 13.7534 35.1189 13.6473 35.1249 13.5853C35.1339 13.4915 35.2195 13.361 35.3056 13.3253C36.473 12.8406 37.646 12.3694 38.8178 11.8955C38.861 11.8781 38.9099 11.8466 38.9501 11.8542C39.1419 11.8906 39.3318 11.938 39.5222 11.9816C39.4619 12.1685 39.4539 12.4064 39.3311 12.5325C38.9846 12.8882 38.6119 13.2269 38.21 13.5177C37.8331 13.7904 37.7014 14.1344 37.7248 14.5688C37.7317 14.6974 37.7571 14.825 37.7699 14.9534C37.8155 15.4102 37.8409 15.4172 38.2805 15.223C38.5797 15.0907 38.886 14.9664 39.2009 14.8822C39.3169 14.8512 39.5216 14.9057 39.5847 14.9936C39.6465 15.0798 39.6194 15.2797 39.5594 15.391C39.4783 15.5414 39.3287 15.655 39.2085 15.7844C39.1807 15.7631 39.1529 15.7419 39.1251 15.7206C39.1894 15.5892 39.2537 15.4578 39.3181 15.3264C39.3007 15.3045 39.2832 15.2826 39.2659 15.2607C39.0017 15.4158 38.752 15.6085 38.47 15.7176C37.9517 15.9183 37.9103 16.2527 38.0773 16.7163C38.1552 16.9326 38.1519 17.1773 38.1944 17.4074C38.2958 17.9569 38.0652 18.2158 37.5069 18.1453C37.3286 18.1228 37.1581 18.039 36.971 17.979Z" fill="#C6001A"/>
<path d="M47.4974 42.796C47.3798 42.7406 47.2872 42.697 47.1678 42.6408C47.3077 42.3035 47.4216 41.9697 47.5877 41.6644C47.6395 41.5693 47.832 41.5077 47.9617 41.5047C49.7003 41.4633 51.4391 41.4349 53.1776 41.4038C54.4347 41.3812 55.6915 41.3591 56.9486 41.3376C57.0979 41.3351 57.2472 41.3373 57.4817 41.3373C57.1656 41.6983 56.8996 42.0023 56.6333 42.306C56.5016 42.4561 56.3684 42.6047 56.2368 42.7549C55.4438 43.6597 55.4438 43.6598 54.2096 43.5334C54.1382 43.3417 54.1642 43.2278 54.4038 43.1663C55.2645 42.9456 55.4473 42.7996 56.037 41.9117C55.8766 41.9117 55.759 41.9094 55.6418 41.912C53.1985 41.9664 50.7555 42.0244 48.3121 42.0713C48.088 42.0758 47.9336 42.1352 47.8208 42.3304C47.7332 42.4819 47.6216 42.6194 47.4974 42.796Z" fill="#C6001A"/>
<path d="M24.6304 41.9141C25.1152 42.5077 25.4607 43.113 26.2466 43.1722C26.3407 43.1793 26.4239 43.3293 26.5122 43.4132C26.4123 43.4624 26.3172 43.538 26.212 43.5566C25.4916 43.6833 24.9392 43.466 24.5052 42.8369C24.1499 42.3217 23.6905 41.8786 23.2363 41.3569C23.9306 41.3569 24.5584 41.3476 25.1857 41.3585C27.6634 41.402 30.1409 41.4591 32.6187 41.4908C32.952 41.4952 33.1451 41.5827 33.2306 41.9092C33.2718 42.0665 33.3465 42.2174 33.4216 42.3629C33.5325 42.5781 33.5119 42.724 33.1638 42.7746C33.1638 42.7746 33.1371 42.7207 33.1126 42.6659C32.8763 42.1381 32.4498 42.0626 31.9135 42.0573C29.6822 42.0349 27.4516 41.9657 25.2206 41.9147C25.0502 41.9108 24.8795 41.9141 24.6304 41.9141Z" fill="#C6001A"/>
<path d="M68.3552 58.7158C68.585 58.8633 68.7801 58.9889 69.0163 59.1406C68.7891 59.4997 68.5675 59.8501 68.3289 60.2271C69.5882 61.06 70.8366 61.8858 72.1055 62.7251C71.932 62.9912 71.7737 63.2338 71.5888 63.5175C70.3283 62.6877 69.0875 61.8711 67.8033 61.0256C67.5617 61.3797 67.3287 61.7217 67.0792 62.0878C66.8548 61.9379 66.6537 61.8035 66.4232 61.6495C67.067 60.6716 67.6974 59.715 68.3552 58.7158Z" fill="#C6001A"/>
<path d="M26.9405 44.6139C27.3614 45.0596 27.6053 45.6006 28.2624 45.6603C28.3598 45.669 28.445 45.812 28.5358 45.8928C28.4311 45.9368 28.3303 46.0019 28.2213 46.0213C27.599 46.1328 27.1323 45.9349 26.7588 45.3937C26.4363 44.9264 26.0158 44.5272 25.583 44.0344C25.8464 44.0344 26.0284 44.0315 26.2104 44.0349C28.6551 44.0796 31.0996 44.139 33.5444 44.1585C34.0249 44.1624 34.3254 44.2773 34.431 44.7646C34.4554 44.8769 34.5141 44.9817 34.5584 45.0936C34.3743 45.3157 34.2208 45.2735 34.0985 45.0511C33.9633 44.8051 33.7605 44.7405 33.4891 44.7353C31.4089 44.695 29.3288 44.6409 27.2487 44.5924C27.171 44.5907 27.0929 44.6029 26.9405 44.6139Z" fill="#C6001A"/>
<path d="M55.0776 44.081C54.5225 44.7101 54.004 45.3461 53.4239 45.9199C53.2828 46.0597 52.9391 46.0205 52.6893 46.0163C52.5161 46.0134 52.2027 45.9442 52.196 45.8793C52.1653 45.586 52.4628 45.6434 52.6278 45.612C53.1883 45.506 53.3497 44.9858 53.7526 44.6374C53.6411 44.6114 53.5895 44.5878 53.5384 44.589C51.437 44.638 49.3357 44.694 47.234 44.7349C46.9504 44.7404 46.7372 44.8044 46.5929 45.0614C46.4781 45.2659 46.3257 45.3087 46.1337 45.0949C46.233 44.8557 46.3049 44.588 46.4514 44.3705C46.5259 44.2597 46.7329 44.1885 46.8821 44.1848C48.6784 44.1409 50.4749 44.1078 52.2715 44.0832C53.186 44.0707 54.1007 44.081 55.0776 44.081Z" fill="#C6001A"/>
<path d="M77.1043 39.1299C77.0133 39.2796 76.9359 39.4067 76.8587 39.5336C77.0609 39.8199 77.2872 40.0928 77.4558 40.3976C77.5485 40.5653 77.5439 40.7866 77.5833 40.9837C77.3956 40.9926 77.1835 41.0627 77.0244 40.9995C76.4812 40.7835 75.9378 40.5531 75.4339 40.2605C75.2226 40.1379 75.1099 39.8455 74.9525 39.6304C74.9776 39.6139 75.0027 39.5975 75.0278 39.5811C75.3937 39.7273 75.7594 39.8738 76.1839 40.0435C76.235 40.2635 76.7349 40.5647 77.273 40.607C77.2841 40.5882 77.3092 40.5636 77.3044 40.5514C76.9738 39.744 76.3756 39.2208 75.5604 38.942C75.4971 38.9202 75.383 38.996 75.3144 39.0529C75.245 39.1106 75.2178 39.2241 75.1449 39.271C75.0705 39.3192 74.9633 39.3162 74.8703 39.3357C74.858 39.2329 74.7962 39.091 74.8416 39.0341C75.0821 38.7314 74.9669 38.5699 74.6663 38.4238C74.5441 38.3644 74.4554 38.2361 74.3958 38.0771C74.6627 38.1928 74.9296 38.3083 75.1964 38.4239C75.2242 38.389 75.252 38.3543 75.2797 38.3195C75.0893 38.1189 74.9098 37.9059 74.7042 37.7221C74.5574 37.5908 74.3697 37.5062 74.2109 37.3866C74.125 37.3219 73.9865 37.2013 74.0036 37.1519C74.0391 37.0501 74.1501 36.9332 74.2531 36.904C74.5284 36.8263 74.8157 36.7915 75.098 36.7397C75.1251 36.767 75.1519 36.7943 75.1787 36.8216C74.9894 36.9472 74.8001 37.0729 74.5525 37.2372C74.7906 37.448 74.952 37.5909 75.0544 37.6818C75.4368 37.5109 75.7804 37.3572 76.2053 37.1673C76.0413 37.5972 75.8505 37.9091 75.4301 38.0992C75.7533 38.4393 76.0133 38.8273 76.522 38.8679C76.5559 38.8324 76.5899 38.7967 76.6237 38.7611C76.3894 38.5992 76.1554 38.4372 75.9211 38.2752C75.95 38.2408 75.9789 38.2065 76.0079 38.1722C76.1431 38.2428 76.2783 38.3133 76.4542 38.4052C76.4929 38.2418 76.5256 38.1032 76.5578 37.9667C76.5928 37.9705 76.6315 37.9692 76.633 37.9758C76.8054 38.7654 77.5048 38.9332 78.1019 39.2171C78.3107 39.3164 78.5308 39.3923 78.768 39.488C78.6489 39.7585 78.4505 39.7853 78.2256 39.6818C77.854 39.5104 77.4907 39.3212 77.1043 39.1299Z" fill="#C6001A"/>
<path d="M42.7792 63.0434C42.5653 63.1206 42.4269 63.1873 42.281 63.2204C41.6297 63.368 41.0603 63.0205 40.9386 62.4107C40.8188 61.8097 41.2159 61.2395 41.8433 61.1118C42.7631 60.9246 43.427 61.4101 43.508 62.3474C43.5639 62.9925 43.5452 63.633 42.9932 64.0941C42.5319 64.4794 41.9956 64.4772 41.4647 64.2732C41.3187 64.2172 41.1599 64.055 41.1181 63.9095C41.0821 63.7842 41.2041 63.6134 41.2563 63.4628C41.4024 63.518 41.6089 63.532 41.6814 63.6377C41.8059 63.8192 41.8397 64.0561 42.1461 64.0093C42.4567 63.962 42.617 63.7634 42.7016 63.4888C42.7416 63.3595 42.7496 63.2203 42.7792 63.0434ZM41.7172 62.1645C41.7175 62.5742 41.8891 62.7901 42.2167 62.7927C42.543 62.7953 42.7356 62.5676 42.7372 62.1774C42.739 61.7632 42.5423 61.5175 42.2159 61.526C41.9001 61.5343 41.717 61.7687 41.7172 62.1645Z" fill="#C6001A"/>
<path d="M47.1834 72.4677C47.507 72.4267 47.7938 72.3903 48.1266 72.3478C48.3511 74.1143 48.5722 75.853 48.7991 77.637C48.4741 77.6787 48.1791 77.7168 47.8528 77.7587C47.6278 75.9786 47.4075 74.2388 47.1834 72.4677Z" fill="#C6001A"/>
<path d="M15.4976 62.4138C15.3221 62.1206 15.1732 61.8717 15.0093 61.5978C16.5339 60.67 18.0362 59.7562 19.5647 58.8262C19.7336 59.1014 19.8903 59.3572 20.062 59.637C18.5342 60.5666 17.0326 61.4799 15.4976 62.4138Z" fill="#C6001A"/>
<path d="M72.0412 39.7107C72.1851 39.8448 72.3288 39.9789 72.4726 40.1131C72.5069 40.078 72.5413 40.0427 72.5758 40.0076C72.3755 39.8368 72.1858 39.6503 71.9693 39.5032C71.8825 39.4443 71.7307 39.4422 71.6188 39.465C70.9531 39.6007 70.2938 39.7697 69.6247 39.8833C69.4618 39.9109 69.2455 39.8044 69.1066 39.6934C69.0576 39.6543 69.1546 39.4133 69.2055 39.2719C69.3679 38.8213 69.5368 38.373 69.7097 37.9264C69.774 37.7604 69.8556 37.6011 69.9601 37.3709C69.9601 37.9297 69.9594 38.3922 69.9603 38.8545C69.9608 39.1335 70.0765 39.2471 70.377 39.215C70.6902 39.1816 71.0101 39.2141 71.3269 39.2124C71.4508 39.2118 71.5749 39.1966 71.7651 39.1835C71.489 38.7119 71.4069 38.2712 71.6979 37.7435C71.9007 37.9923 72.0983 38.1967 72.252 38.4301C72.7619 39.2045 73.2704 39.9807 73.7411 40.7791C73.8164 40.9067 73.7518 41.196 73.6481 41.3303C73.5125 41.5053 73.3322 41.3684 73.207 41.2254C72.7889 40.7477 72.3705 40.2702 71.9524 39.7925C71.9821 39.7653 72.0116 39.7381 72.0412 39.7107Z" fill="#C6001A"/>
<path d="M69.5519 66.1423C69.3332 66.4011 69.1455 66.6233 68.9391 66.8674C67.5811 65.7101 66.2436 64.5701 64.8766 63.4052C65.0855 63.1581 65.2781 62.9304 65.49 62.6795C66.847 63.8363 68.1846 64.9767 69.5519 66.1423Z" fill="#C6001A"/>
<path d="M21.0168 69.0532C20.7831 68.8299 20.574 68.6303 20.3311 68.3985C21.6181 67.1495 22.8827 65.9222 24.1601 64.6827C24.3872 64.918 24.5885 65.1267 24.8165 65.363C23.5536 66.5896 22.2877 67.8188 21.0168 69.0532Z" fill="#C6001A"/>
<path d="M47.3279 15.1465C47.2073 15.4093 47.0894 15.6736 46.9648 15.9347C46.8342 16.2082 46.8589 16.5499 46.525 16.7354C46.2492 16.8886 46.1019 16.8248 45.9489 16.5843C45.6764 16.1562 45.6995 15.8995 46.027 15.736C46.4644 15.5174 46.8963 15.2868 47.3246 15.0506C47.7542 14.8137 47.7904 14.3716 47.9365 13.8954C47.6967 13.9595 47.5339 14.0218 47.3665 14.0396C47.2867 14.048 47.1979 13.9715 47.1132 13.9334C47.1542 13.847 47.1724 13.7193 47.2403 13.6817C47.4855 13.5459 47.7497 13.4452 48.002 13.3215C48.1035 13.2717 48.2107 13.2125 48.283 13.1295C48.407 12.9869 48.5048 12.8494 48.706 13.032C48.7358 13.0592 48.8459 12.986 48.9209 12.9778C49.04 12.9647 49.1609 12.9673 49.2809 12.9632C49.2829 13.1248 49.3316 13.3072 49.2716 13.4411C49.2285 13.5372 49.0454 13.6025 48.9159 13.6219C48.5409 13.6779 48.3236 13.8986 48.2294 14.2418C48.0939 14.7347 47.9846 15.2347 47.8568 15.7298C47.7167 16.2723 47.5665 16.8123 47.425 17.3546C47.3985 17.4561 47.3843 17.5624 47.3777 17.6673C47.3479 18.1472 47.2058 18.245 46.7163 18.1063C46.9726 17.143 47.229 16.1793 47.4854 15.2157C47.4329 15.1926 47.3804 15.1695 47.3279 15.1465Z" fill="#C6001A"/>
<path d="M46.1718 62.6097C46.5546 62.7828 46.7555 63.0429 46.7108 63.4519C46.6627 63.8939 46.3867 64.1881 45.9936 64.2717C45.5942 64.3567 45.1577 64.3622 44.7527 64.301C44.3578 64.2412 44.0858 63.855 44.1654 63.544C44.2007 63.406 44.3837 63.2396 44.5214 63.2169C44.6146 63.2017 44.8417 63.4162 44.8397 63.5248C44.8348 63.775 44.9027 63.9101 45.1434 63.9472C45.4022 63.987 45.6437 63.9519 45.7827 63.6956C46.0034 63.289 45.7803 62.8451 45.3202 62.8227C45.0346 62.8089 44.9687 62.7041 45.0455 62.4292C45.1692 62.4043 45.3295 62.4132 45.4313 62.3405C45.5609 62.2483 45.704 62.0993 45.7272 61.9563C45.747 61.8346 45.6368 61.619 45.5267 61.5674C45.3913 61.5038 45.1892 61.5432 45.0313 61.5901C44.9794 61.6054 44.9399 61.7894 44.957 61.8851C45.0008 62.1279 44.8875 62.2548 44.6784 62.2908C44.4488 62.3306 44.2864 62.2219 44.2557 61.9774C44.2178 61.6734 44.3695 61.4523 44.6122 61.3011C45.0643 61.0199 45.5536 61.0052 46.031 61.2062C46.6591 61.4708 46.7178 62.0222 46.1718 62.6097Z" fill="#C6001A"/>
<path d="M73.4754 39.2939C73.7711 39.4702 74.0669 39.6467 74.3626 39.8229C74.3866 39.8026 74.4106 39.782 74.4347 39.7617C74.3819 39.6705 74.3442 39.565 74.2739 39.4902C73.5373 38.7051 72.785 37.9345 72.0609 37.1381C71.7975 36.8484 71.5766 36.5131 71.3776 36.1744C71.2454 35.949 71.3084 35.7043 71.5522 35.5701C71.6214 35.5319 71.7955 35.5616 71.8414 35.6215C72.4668 36.4381 73.0922 37.2555 73.688 38.0937C74.1016 38.6755 74.473 39.2876 74.8566 39.8905C74.997 40.1114 74.9698 40.3138 74.7327 40.4584C74.4977 40.6014 74.4013 40.4033 74.2745 40.2709C73.9859 39.9692 73.6929 39.6713 73.4016 39.3719C73.4261 39.3458 73.4507 39.3199 73.4754 39.2939Z" fill="#C6001A"/>
<path d="M38.2263 64.3407C38.1599 64.0989 38.1741 63.9699 38.4151 63.9468C38.6375 63.9255 38.7272 63.7764 38.7241 63.5529C38.7173 63.0596 38.7194 62.5663 38.7228 62.073C38.7242 61.8592 38.6658 61.7166 38.4204 61.68C38.3384 61.6678 38.2723 61.5484 38.199 61.4779C38.2786 61.4184 38.351 61.3254 38.4396 61.3057C38.7555 61.2357 39.0769 61.1907 39.4607 61.1253C39.4607 61.4895 39.4608 61.8122 39.4606 62.1348C39.4605 62.5927 39.4685 63.051 39.4566 63.5087C39.4501 63.7603 39.5404 63.8987 39.7926 63.9614C39.8791 63.983 39.939 64.1107 40.0111 64.1898C39.9223 64.24 39.8348 64.3313 39.7447 64.3338C39.2416 64.3479 38.7379 64.3407 38.2263 64.3407Z" fill="#C6001A"/>
<path d="M49.6119 63.9983C49.6829 64.2485 49.6154 64.3504 49.3678 64.3446C48.8656 64.3332 48.363 64.3413 47.8445 64.3413C47.7995 64.1247 47.7663 63.9724 48.039 63.9438C48.263 63.9202 48.343 63.7663 48.339 63.5443C48.3304 63.0514 48.334 62.5585 48.3366 62.0655C48.3377 61.8482 48.2686 61.7016 48.0229 61.6891C47.7731 61.6762 47.7875 61.5192 47.8421 61.3445C48.2349 61.2749 48.622 61.2063 49.0733 61.1265C49.0733 61.3768 49.0732 61.5931 49.0734 61.8095C49.0736 62.3142 49.0732 62.819 49.0745 63.3237C49.0758 63.8756 49.0765 63.8756 49.6119 63.9983Z" fill="#C6001A"/>
<path d="M47.2753 13.1868C47.6519 12.8315 48.0199 12.4665 48.4078 12.124C48.748 11.8235 49.1016 11.536 49.4685 11.2694C49.5751 11.1919 49.7483 11.2059 49.891 11.178C49.8877 11.3354 49.922 11.5056 49.8737 11.6478C49.7572 11.9916 49.4651 12.1676 49.1518 12.3184C48.5408 12.6126 47.9353 12.9182 47.3274 13.2191C47.3099 13.2083 47.2926 13.1975 47.2753 13.1868Z" fill="#C6001A"/>
<path d="M67.0272 29.5979C67.1439 29.6993 67.2878 29.7818 67.3718 29.9053C67.6231 30.2751 67.8623 30.6543 68.0781 31.0454C68.1208 31.1228 68.0542 31.2774 68.0018 31.3777C67.99 31.4004 67.8257 31.3516 67.7353 31.3236C67.4988 31.25 67.2645 31.1697 67.0146 31.0871C67.4473 30.5593 67.0323 30.1215 67.0272 29.5979Z" fill="#C6001A"/>
<path d="M53.7486 55.616C53.7486 55.3595 53.7486 55.1388 53.7486 54.8784C53.8698 54.871 53.9821 54.8585 54.0944 54.8583C57.8877 54.8567 61.681 54.8572 65.4745 54.8534C65.7442 54.8531 65.9475 54.9185 65.9564 55.228C65.9649 55.5266 65.7914 55.6391 65.509 55.6391C61.657 55.637 57.8048 55.6373 53.9528 55.6361C53.896 55.636 53.8393 55.6251 53.7486 55.616Z" fill="#C6001A"/>
</svg>
