<svg xmlns="http://www.w3.org/2000/svg" width="1050" height="520" viewBox="0 0 1050 520"><defs><marker id="a" markerWidth="12" markerHeight="12" refX="6" refY="6" orient="auto"><path d="M2,2 L10,6 L2,10 Z" fill="#2563eb"/></marker></defs><rect width="1050" height="520" rx="22" fill="#f8fafc"/><text x="525" y="44" text-anchor="middle" font-family="Arial, Microsoft YaHei, sans-serif" font-size="26" font-weight="700" fill="#0f172a">异步 FIFO CDC 架构</text><rect x="45" y="80" width="400" height="390" rx="18" fill="#eff6ff" stroke="#93c5fd"/><rect x="605" y="80" width="400" height="390" rx="18" fill="#f0fdf4" stroke="#86efac"/><text x="245" y="112" text-anchor="middle" font-family="Arial, Microsoft YaHei, sans-serif" font-size="20" font-weight="700">Write Clock Domain</text><text x="805" y="112" text-anchor="middle" font-family="Arial, Microsoft YaHei, sans-serif" font-size="20" font-weight="700">Read Clock Domain</text><rect x="365" y="215" width="320" height="90" rx="16" fill="#fff7ed" stroke="#fb923c" stroke-width="2"/><text x="525" y="266" text-anchor="middle" font-family="Arial, Microsoft YaHei, sans-serif" font-size="22" font-weight="700">Dual-Port Memory</text><g font-family="Arial, Microsoft YaHei, sans-serif" font-size="16" fill="#0f172a"><text x="100" y="170">wr_clk / wr_en / wr_data</text><text x="762" y="170">rd_clk / rd_en / rd_data</text><text x="95" y="345">wr_ptr_bin</text><text x="95" y="375">wr_ptr_gray</text><text x="785" y="345">rd_ptr_bin</text><text x="785" y="375">rd_ptr_gray</text><text x="155" y="430">full logic</text><text x="805" y="430">empty logic</text><text x="445" y="150" fill="#475569">Gray sync to rd_clk</text><text x="445" y="420" fill="#475569">Gray sync to wr_clk</text></g><g stroke="#2563eb" stroke-width="3" fill="none" marker-end="url(#a)"><path d="M210 180 C270 210 310 238 354 250"/><path d="M696 250 C742 232 780 205 840 180"/><path d="M220 382 H430 C500 382 550 382 625 382 H770"/><path d="M830 332 H645 C565 332 500 332 420 332 H205"/><path d="M205 382 V410"/><path d="M835 382 V410"/></g></svg>