<svg xmlns="http://www.w3.org/2000/svg" width="980" height="520" viewBox="0 0 980 520"><defs><linearGradient id="g" x1="0" y1="0" x2="1" y2="1"><stop offset="0%" stop-color="#eef7ff"/><stop offset="100%" stop-color="#d8ebff"/></linearGradient><marker id="a" markerWidth="12" markerHeight="12" refX="6" refY="6" orient="auto"><path d="M2,2 L10,6 L2,10 Z" fill="#2563eb"/></marker></defs><rect width="980" height="520" rx="24" fill="#f8fafc"/><text x="490" y="48" text-anchor="middle" font-family="Arial, Microsoft YaHei, sans-serif" font-size="28" font-weight="700" fill="#0f172a">FIFO 学习路径</text><text x="490" y="78" text-anchor="middle" font-family="Arial, Microsoft YaHei, sans-serif" font-size="15" fill="#64748b">Buffering → full/empty → sizing → CDC</text><g font-family="Arial, Microsoft YaHei, sans-serif" font-size="18" font-weight="600" fill="#0f172a"><rect x="90" y="115" width="250" height="58" rx="14" fill="url(#g)" stroke="#93c5fd"/><text x="215" y="151" text-anchor="middle">Buffer 基础概念</text><rect x="365" y="115" width="250" height="58" rx="14" fill="url(#g)" stroke="#93c5fd"/><text x="490" y="151" text-anchor="middle">同步 FIFO 架构</text><rect x="640" y="115" width="250" height="58" rx="14" fill="url(#g)" stroke="#93c5fd"/><text x="765" y="151" text-anchor="middle">full / empty 判断</text><rect x="640" y="245" width="250" height="58" rx="14" fill="url(#g)" stroke="#93c5fd"/><text x="765" y="281" text-anchor="middle">FIFO 深度 sizing</text><rect x="365" y="245" width="250" height="58" rx="14" fill="url(#g)" stroke="#93c5fd"/><text x="490" y="281" text-anchor="middle">peek / non-peek FIFO</text><rect x="90" y="245" width="250" height="58" rx="14" fill="url(#g)" stroke="#93c5fd"/><text x="215" y="281" text-anchor="middle">异步 FIFO 与 CDC</text><rect x="365" y="375" width="250" height="58" rx="14" fill="#ecfdf5" stroke="#86efac"/><text x="490" y="411" text-anchor="middle">架构 checklist 与验证</text></g><g stroke="#2563eb" stroke-width="3" fill="none" marker-end="url(#a)"><path d="M340 144 H356"/><path d="M615 144 H631"/><path d="M765 173 V236"/><path d="M640 274 H624"/><path d="M365 274 H349"/><path d="M215 303 C215 354 330 404 356 404"/></g></svg>